<?xml version="1.0" standalone="no"?>
<!DOCTYPE svg PUBLIC "-//W3C//DTD SVG 1.1//EN" "http://www.w3.org/Graphics/SVG/1.1/DTD/svg11.dtd" >
<svg xmlns="http://www.w3.org/2000/svg" xmlns:xlink="http://www.w3.org/1999/xlink" version="1.1">
<metadata>
Created by FontForge 20201107 at Fri Jan  5 05:43:05 2024
 By 
Copyright (c) 2024 by Khurasan. All rights reserved.
</metadata>
<defs>
<font id="Cashrole" horiz-adv-x="0" >
  <font-face 
    font-family="Cashrole"
    font-weight="400"
    font-stretch="normal"
    units-per-em="1000"
    panose-1="0 0 0 0 0 0 0 0 0 0"
    ascent="800"
    descent="-200"
    x-height="422"
    cap-height="781"
    bbox="-1188 -254.8 4200 858"
    underline-thickness="50"
    underline-position="-100"
    unicode-range="U+000D-E004"
  />
<missing-glyph horiz-adv-x="356" 
 />
    <glyph glyph-name="swash1" unicode="&#x2a;&#x31;" 
d="M-1049 -210q8 -11 13 -17.5t10 -14.5q-23 -6 -36 -9t-21 -1t-14 9.5t-15 21.5q0 18 10.5 28.5t23.5 17.5q44 30 87 50q102 51 209 85.5t216 61.5q121 30 243 51t246 34q80 8 158 12.5t157 2.5q94 -3 186 -10.5t184 -27.5q20 -4 38.5 -10t37.5 -14q16 -6 27 -17t14 -29
q0 -5 -2 -10.5t-4 -16.5q-16 23 -35 35t-40 18t-42.5 7.5t-42.5 4.5q-114 17 -227 21.5t-229 -0.5q-109 -5 -217 -18t-216 -33q-134 -24 -264 -57t-258 -82q-51 -19 -100 -40.5t-97 -52.5zM881 21q6 -9 9.5 -14.5t5.5 -10t3 -9.5t3 -14h-93q-5 8 -9 15.5t-9 14.5
q10 12 21 16t22.5 4.5t23 -1t23.5 -1.5z" />
    <glyph glyph-name="swash2" unicode="&#x2a;&#x32;" 
d="M-1081 -149q6 -22 13 -38q-4 -1 -6.5 -2.5t-3.5 -1.5q-31 30 -31 55t32 49q18 14 37.5 25t39.5 20q72 31 148 48.5t152 31.5q106 17 212 26t213 17q162 9 323.5 9t323.5 -5q110 -3 218 -13.5t217 -33.5q11 -3 23.5 -6t26.5 -8q5 -9 8 -18.5t6 -19.5q-12 -17 -28 -21.5
t-32 -6.5q-33 -5 -66.5 -10t-67.5 -8q-42 -5 -82.5 -7t-83.5 -6q-125 -6 -250 -9q-14 -2 -27.5 -1t-27.5 2q-5 10 -7 18t-6 16q5 3 7.5 6.5t5.5 3.5q10 2 18.5 3t16.5 1q104 -2 206 4t205 14q31 3 61.5 5t66.5 13q-40 7 -75 13t-70 8q-75 8 -149.5 14.5t-149.5 8.5
q-131 2 -259 2.5t-259 -3.5q-157 -6 -312.5 -20t-310.5 -49q-50 -11 -99 -26t-97 -36q-16 -7 -26.5 -13t-19 -12.5t-16.5 -16t-18 -22.5z" />
    <glyph glyph-name="swash3" unicode="&#x2a;&#x33;" 
d="M-1170 -157q-11 22 -18 39q6 9 18.5 14.5t26.5 9.5t27 6t21 2q48 3 99 12t110 24t128 35t152 46q25 8 51 7t49 -24q26 3 52.5 6t52.5 5q111 12 220 24.5t219 22.5q140 11 277 14.5t276 -3.5q45 -2 89.5 -7.5t89.5 -12.5q18 -3 37 -8t36 -21q3 -8 7 -19t7 -20
q-6 -17 -17 -23.5t-24 -9.5q-18 -5 -36 -9t-37 -9l-52 -10t-55 -10q-4 13 -11 28q20 13 46.5 21.5t51 14t44 9.5t27 7.5t-1 8.5t-39.5 14q-209 24 -424 22.5t-435.5 -24t-445.5 -63t-453 -93.5q-26 -6 -51.5 -12t-51.5 -10q-15 -2 -30 -2.5t-32 -1.5z" />
    <glyph glyph-name="swash4" unicode="&#x2a;&#x34;" 
d="M837 33q-15 -5 -30 -4t-30 3q-103 8 -205 7t-205 -6q-104 -4 -206.5 -7t-206.5 -8q-149 -6 -298 -13l-298 -14q-83 -3 -164 -7t-162 -7q-44 -2 -86 -3.5t-86 -3.5h-25q-2 7 -3.5 11t-1.5 7q5 9 8 9q14 2 27 5t27 3q61 5 121 7.5t120 5.5q125 8 248.5 14t248.5 14
q61 3 122.5 5.5t123.5 4.5q194 6 386.5 12t386.5 1q41 -2 80.5 -6t80.5 -6q9 -1 18.5 -4t8.5 -20zM890 21q21 43 55 36q7 -1 14 -4t11.5 -7.5t5 -10.5t-5.5 -13q-6 -8 -15 -9t-19.5 0.5t-22 4t-23.5 3.5z" />
    <glyph glyph-name="noname" unicode="Cashrole" horiz-adv-x="4275" 
d="M917 233q23 13 47 27t50 29q17 -19 19 -30.5t-6 -20.5t-25 -18.5t-37 -23.5q-147 -90 -307.5 -145.5t-324.5 -70.5q-48 -5 -96.5 -2t-97.5 17q-29 10 -54 24t-46 34q-31 29 -39.5 65t4.5 77q14 40 36.5 74.5t51.5 65.5q21 26 45 51t50 46q133 116 279.5 200t315.5 135
q40 11 79 18.5t80 5.5q32 -2 59.5 -12t52.5 -31q32 -30 38.5 -69t-19.5 -75q-39 -63 -95 -100.5t-128 -52.5q-20 -5 -42 -3t-43 23q80 16 149.5 54t111.5 98q22 32 24 55.5t-10.5 38.5t-35.5 23t-49.5 9.5t-53 -2t-46.5 -11.5q-96 -23 -183.5 -62.5t-172.5 -87.5
q-97 -58 -185.5 -123t-164.5 -150q-24 -26 -46.5 -56.5t-40.5 -64.5q-20 -47 -13.5 -78.5t30 -51t59 -28t74.5 -10t76.5 1.5t65.5 7q151 22 290.5 74.5t273.5 125.5zM3221 58q16 -6 27 -16.5t14 -29.5q0 -5 -1.5 -10.5t-3.5 -15.5q-16 23 -35.5 35t-40.5 17.5t-42.5 7.5
t-42.5 4q-115 17 -228 21.5t-231 -0.5q-216 -10 -433 -50q-134 -25 -264 -57.5t-258 -81.5q-51 -20 -100.5 -41.5t-97.5 -53.5q8 -11 12.5 -17t9.5 -14q-23 -6 -36 -9t-21 -1t-14 9t-15 21q0 18 10.5 28.5t23.5 17.5q44 32 89 51q101 51 208 85.5t216 62.5q122 30 244.5 51
t247.5 34q79 7 157 12.5t158 2.5q94 -4 186 -11t184 -28q21 -4 39.5 -10t37.5 -14zM3327 0q10 12 21.5 16.5t23 5t23.5 -1t23 -0.5q7 -9 10.5 -14.5t5.5 -10.5t3 -10.5t2 -14.5h-93q-6 9 -10 16.5t-9 13.5zM4195 334q5 -8 5 -13.5t-2.5 -9t-6 -5t-5.5 -1.5q-53 -18 -105 -36
t-102.5 -32t-99.5 -23t-95 -9q-50 0 -75.5 27.5t-19.5 61.5q-37 -15 -86 -32t-99.5 -31t-95.5 -23t-75 -9q-18 0 -31.5 8t-21.5 21t-10 30t3 36q0 5 1 7q-44 -5 -91 -9t-86 -9q-12 -12 -23.5 -21.5t-24.5 -17.5q-39 -32 -88 -47q-34 -10 -68 9q-27 17 -34.5 41t11.5 48
q-33 -7 -68 -14t-53 -9q-24 -2 -40.5 11t-16.5 34q1 14 1.5 30t2.5 35q-55 -17 -100 -54.5t-80 -77.5q-11 -14 -21 -26t-22 -26q-8 5 -14.5 9t-13.5 9q5 14 15 31t27 37q-54 -20 -108.5 -39.5t-102.5 -31.5q-17 -5 -35 -2t-30.5 12.5t-16 25t9.5 35.5q11 19 28 36.5t26 42.5
q-45 -11 -87 -30t-82.5 -40.5t-80 -43t-78.5 -39.5q-5 5 -11 9t-13 11q7 20 15.5 40.5t18.5 40.5q-32 -3 -59 -11t-61 -16q-18 -5 -35 -12t-34 -13q-50 -20 -98.5 -39t-97.5 -38q-29 -13 -61 -23.5t-63 -22.5q-14 -5 -25.5 -3t-19.5 19q3 13 12 17t20 9q71 27 139 54t138 54
q5 2 12 5t21 10q-30 4 -54.5 3t-47.5 -6q-28 -6 -45 8q-26 -11 -49 -20t-46 -18.5t-47 -20.5t-52 -25q-48 -22 -85 -13.5t-57 58.5q-30 -18 -53 -32.5t-45 -28.5q-13 -7 -21.5 -9.5t-16.5 -1t-17 8.5t-22 19q5 41 21 66t44 48q6 5 12.5 11t13.5 13q40 29 85 44t100 -2
q13 9 23.5 17t21.5 16q8 -7 15 -12.5t15 -13.5q-27 -30 -55.5 -56.5t-50.5 -59.5q-8 -11 -13 -22.5t-4.5 -19.5t9 -10.5t28.5 5.5q36 14 65 24t55.5 19.5t53.5 19t59 21.5q1 12 15 17q37 19 74 37.5t74 35.5q15 7 31 6t31 -23q-71 -21 -125 -62q15 -3 30.5 -3.5t30.5 -2.5
t29.5 -7t26.5 -16q21 5 43 11t44 11t43.5 7.5t39.5 1.5h3q51 84 118 157.5t141 128.5q35 27 74 48t82 32q17 4 28.5 4t20.5 -5t16.5 -15t16.5 -27q-3 -26 -17 -46.5t-31 -38.5q-43 -49 -90 -90t-99 -76q-22 -13 -37 -29q11 2 22.5 6.5t23.5 6.5q12 3 23.5 4t22 -1.5t20 -10
t17.5 -22.5q-1 -18 -9 -32t-18 -27.5t-20.5 -27t-16.5 -29.5q26 -3 66 7.5t82 25t80 28.5t59 19q17 18 37 36t42 36q14 1 26 1t22 3q29 9 51 -3t26 -37q2 -16 -1 -30.5t-3 -29.5q45 4 87 11.5t84 11.5l6 6q30 28 64 48.5t74 31.5q8 2 17.5 2.5t17.5 -0.5q20 -2 33.5 -11
t19.5 -23t4 -31t-14 -35q13 0 34.5 1.5t45 3t44.5 3t34 1.5h2q2 13 -3 21q11 14 22 24t19 21q39 53 82 100t93 90q42 35 88 62.5t98 44.5q8 3 17.5 6t19.5 4.5t19 0t15 -7.5q20 -23 20.5 -38t-17.5 -34q-41 -45 -86 -83q-72 -54 -147 -98t-153 -85q-30 -17 -47 -49t-15 -70
q3 -6 22.5 -4.5t50.5 8t71 17t82.5 23t86 25.5t81.5 26q14 19 34 33q31 20 65.5 30.5t74.5 9.5q17 -1 27.5 -11.5t14.5 -33.5q0 -10 -17.5 -21t-45 -20.5t-62.5 -17.5t-70 -13q-3 -23 11.5 -32.5t36 -12t45 -0.5t38.5 3q91 14 172.5 38.5t165.5 47.5zM3851 366
q-23 0 -38.5 -7.5t-35.5 -24.5q23 6 40.5 12t33.5 20zM3726 659q-48 -14 -96.5 -41t-93 -61.5t-83 -74t-68.5 -78.5q46 26 102 59.5t106 68.5t87 68.5t46 58.5zM1132 257q25 14 47.5 26.5t44.5 26t44 28t47 33.5q-58 4 -101.5 -21.5t-81.5 -92.5zM2415 672q-26 0 -60 -13
t-71 -35.5t-74.5 -52.5t-70.5 -63t-59 -67t-40 -65q27 6 62 23.5t73 42.5t76 55t70.5 60.5t57.5 60.5t36 54zM1981 279q23 11 44 23t48 28q-30 -7 -46.5 -11t-25 -9t-12.5 -12t-8 -19zM2904 230q29 -2 53.5 5.5t42.5 27.5q-30 -2 -45 9t-26 28q-14 -16 -23.5 -31.5
t-1.5 -38.5zM3073 320q13 16 22.5 29.5t5.5 40.5q-44 -4 -68.5 -15.5t-37.5 -32.5q-15 -24 -10.5 -30.5t19.5 -4.5t34.5 7.5t34.5 5.5z" />
    <glyph glyph-name=".notdef" horiz-adv-x="356" 
 />
    <glyph glyph-name=".null" 
 />
    <glyph glyph-name="nonmarkingreturn" unicode="&#xd;" horiz-adv-x="356" 
 />
    <glyph glyph-name="NULL" 
 />
    <glyph glyph-name="NULL" 
 />
    <glyph glyph-name="space" unicode=" " horiz-adv-x="356" 
 />
    <glyph glyph-name="exclam" unicode="!" horiz-adv-x="308" 
d="M454 836q10 -5 15 -10q3 -5 6 -8.5t5 -8.5q-4 -17 -14 -31.5t-25 -17.5q-17 -3 -27.5 -13t-18.5 -21q-31 -36 -62.5 -72t-57.5 -76q-42 -59 -79.5 -119t-75.5 -121q-16 -26 -28.5 -55.5t-27.5 -59.5q-5 3 -12 7.5t-12 7.5q-3 23 3 41.5t14 35.5q54 113 118 218t149 199
q20 22 43 41.5t46 38.5q10 8 20.5 13.5t20.5 10.5zM-18 86q-3 26 7 40q14 19 30.5 16.5t26.5 -25.5q1 -13 -5.5 -24.5t-16.5 -17.5t-21.5 -4.5t-20.5 15.5z" />
    <glyph glyph-name="quotedbl" unicode="&#x22;" horiz-adv-x="301" 
d="M220 684q1 -12 -5 -30t-15.5 -37t-20.5 -36.5t-21 -26.5q-2 0 -3 -0.5t-3 -0.5q-5 0 -9 1.5t-9 1.5q19 35 31 70t21 67zM282 684q1 -12 -5 -30t-15.5 -37t-20.5 -36.5t-21 -26.5q-2 0 -3 -0.5t-3 -0.5q-5 0 -9 1.5t-9 1.5q19 35 31 70t21 67z" />
    <glyph glyph-name="dollar" unicode="$" horiz-adv-x="555" 
d="M304 503q-14 -19 -26.5 -36.5t-26.5 -36.5q24 -6 47.5 -10.5t46 -10.5t42 -16t36.5 -26t15.5 -34t-18.5 -32q-17 -13 -36 -23.5t-39 -18.5q-51 -21 -103.5 -31t-107.5 -16q-5 0 -10.5 -0.5t-13.5 -0.5q-22 -31 -36.5 -64.5t-19.5 -73.5q-23 5 -27.5 19t0.5 31
q5 21 11.5 42t13.5 41q-27 6 -42.5 10t-24 9.5t-14 13t-13.5 21.5h124q21 34 41.5 66.5t41.5 67.5q-13 5 -24.5 8t-22.5 8q-10 5 -20.5 10.5t-18.5 14.5q-15 16 -15 33t15 32q12 13 26 24t29 17q35 17 70.5 31t72.5 28q13 5 26.5 7.5t25.5 6.5q26 26 50 52t48 53
q8 -8 13 -13.5t10 -13.5q-11 -15 -21 -29.5t-23 -32.5q16 -7 31.5 -5.5t29.5 -0.5q15 -1 24 -3.5t15.5 -8.5t11 -16.5t9.5 -27.5q-16 -19 -41.5 -34t-56 -24t-63 -11t-62.5 4zM141 267q100 7 166 28t92 54q-42 13 -90.5 22t-90.5 12q-18 -26 -36.5 -54t-40.5 -62zM105 455
q19 -4 30 -6t19.5 -3.5t18 -3t24.5 -3.5q17 25 35.5 50.5t38.5 51.5q-60 -8 -103 -31t-63 -55zM459 586q-21 -2 -43.5 -4.5t-43.5 -6.5q-24 -3 -27 -34q32 -1 60 12t54 33z" />
    <glyph glyph-name="percent" unicode="%" horiz-adv-x="695" 
d="M477 760q9 -8 17 -14t13 -11q-54 -74 -105.5 -149t-97.5 -152.5t-84 -158.5t-64 -168q-13 -2 -19.5 2.5t-6.5 12.5q0 55 17.5 109t37.5 97q62 122 134.5 228.5t157.5 203.5zM164 708q20 13 37.5 24t36.5 20q19 10 38.5 3.5t30.5 -25.5q5 -9 6 -19.5t2 -21.5
q0 -18 -4.5 -36.5t-11.5 -35.5q-17 -43 -42.5 -80t-57.5 -69q-34 -36 -73 -63q-19 -15 -47 -23q-29 -9 -50.5 6.5t-22.5 44.5q0 14 1.5 27.5t5.5 27.5q16 54 40.5 103.5t60.5 93.5q8 9 16.5 16t16.5 15q11 -4 17 -8zM55 419q16 1 30 7t28 16q90 63 139 161q8 16 12.5 33.5
t9.5 34.5q3 11 2.5 21.5t-7.5 20.5q-7 4 -13.5 2.5t-13.5 -5.5q-8 -5 -17 -10t-17 -10q-25 -20 -46.5 -42t-41.5 -48q-23 -30 -40 -63t-19 -73l-6 -4t-7 -4q-2 -10 -1.5 -19.5t8.5 -17.5zM431 468q20 13 37.5 24t36.5 20q19 10 38.5 3.5t30.5 -25.5q5 -9 6 -19.5t2 -21.5
q0 -18 -4.5 -36.5t-11.5 -35.5q-17 -43 -42.5 -80t-57.5 -69q-34 -36 -73 -63q-19 -15 -47 -23q-29 -9 -50.5 6.5t-22.5 44.5q0 14 1.5 27.5t5.5 27.5q16 54 40.5 103.5t60.5 93.5q8 9 16.5 16t16.5 15q11 -4 17 -8zM322 179q16 1 30 7t28 16q90 63 139 161q8 16 12.5 33.5
t9.5 34.5q3 11 2.5 21.5t-7.5 20.5q-7 4 -13.5 2.5t-13.5 -5.5q-8 -5 -17 -10t-17 -10q-25 -20 -46.5 -42t-41.5 -48q-23 -30 -40 -63t-19 -73l-6 -4t-7 -4q-2 -10 -1.5 -19.5t8.5 -17.5z" />
    <glyph glyph-name="ampersand" unicode="&#x26;" horiz-adv-x="745" 
d="M609 24q-5 5 -11.5 9.5t-10.5 9.5q-14 25 -33 42.5t-41 34.5q-42 32 -82.5 65t-84.5 68q-10 -8 -20.5 -16t-22.5 -17q-44 -32 -87 -63t-88 -62q-44 -26 -93 -45q-25 -10 -49 -6.5t-45 25.5q-14 15 -18.5 30t4.5 33q17 38 43 71q34 43 74.5 78t83.5 69q27 23 55 45.5
t56 44.5q0 5 1 8t-1 8q-3 49 10.5 95t40 84.5t65 67.5t85.5 44q18 6 38 9q21 2 37.5 -5t26.5 -20.5t11.5 -31.5t-7.5 -36q-11 -22 -25.5 -42t-31.5 -37q-35 -34 -71 -65t-71 -63q-13 -11 -25.5 -21t-23.5 -20q2 -15 4.5 -24.5t6 -18.5t10 -19t17.5 -26q8 5 15.5 9t15.5 9
q42 30 84.5 59t85.5 57q17 11 36 21t40 21q11 -9 19.5 -16t17.5 -15q-76 -44 -141.5 -94.5t-134.5 -101.5q22 -28 44.5 -48.5t46.5 -40.5q24 -19 48.5 -37t48.5 -39q14 -12 25.5 -26t23.5 -29q3 -5 4 -11.5t3 -13.5q-2 -1 -4 -3t-5 -4zM259 383q-28 -18 -60.5 -44t-65 -53.5
t-61 -55t-47.5 -49.5q-23 -28 -40 -57q-4 -6 -5.5 -13.5t-5.5 -16.5q16 2 40.5 12.5t53.5 26.5t61 36.5t63 43t60 46.5t52 47q-11 18 -22 37.5t-23 39.5zM291 485q7 4 13.5 6t11.5 7q29 26 59 51t59 53q18 16 33.5 35.5t29.5 38.5q6 8 10 16.5t3 19.5q-39 1 -78.5 -19.5
t-71 -53.5t-51 -73.5t-18.5 -80.5z" />
    <glyph glyph-name="quotesingle" unicode="'" horiz-adv-x="232" 
d="M220 684q1 -12 -5 -30t-15.5 -37t-20.5 -36.5t-21 -26.5q-2 0 -3 -0.5t-3 -0.5q-5 0 -9 1.5t-9 1.5q19 35 31 70t21 67z" />
    <glyph glyph-name="parenleft" unicode="(" horiz-adv-x="273" 
d="M535 765q6 -5 14 -12.5t18 -15.5q-8 -9 -13.5 -15.5t-10.5 -12.5q-8 2 -15.5 4t-15.5 4q-90 -48 -169.5 -110t-149.5 -136q-44 -47 -83.5 -95t-68.5 -105q-13 -24 -23.5 -49.5t-18.5 -51.5q-15 -59 14 -97t88 -40h30q4 0 6.5 -1t5.5 -3t7 -7t12 -14q-32 -16 -62 -10.5
t-59 20.5q-57 31 -79 86.5t-3 118.5q23 69 66 128q83 115 182.5 208.5t221.5 163.5q23 14 48.5 25.5t57.5 16.5z" />
    <glyph glyph-name="parenright" unicode=")" horiz-adv-x="536" 
d="M-185 -13q-6 5 -14 12.5t-18 15.5q49 18 99 46t98 63t93 75t84 82q44 47 83.5 95t68.5 105q13 24 23.5 49.5t18.5 51.5q5 19 4 38.5t-7 36t-16 29.5t-24 20t-29.5 2.5t-35.5 -6.5q-24 -3 -35.5 9.5t-19.5 32.5q32 16 62 10.5t59 -20.5q57 -31 79 -86.5t3 -118.5
q-23 -69 -66 -128q-83 -115 -182.5 -208.5t-221.5 -163.5q-23 -14 -48.5 -25.5t-57.5 -16.5z" />
    <glyph glyph-name="asterisk" unicode="*" horiz-adv-x="383" 
d="M168 726q13 0 23 -6t17.5 -14t14.5 -17.5t16 -17.5q10 9 17 20t12.5 22.5l11 23t14.5 21.5q9 -6 13.5 -10t6 -9.5t0 -13.5t-5.5 -22q8 -4 16 -2.5t15.5 4.5t16 5.5t18.5 0.5q4 -4 12 -17q-14 -11 -29.5 -17.5t-32 -12.5t-32 -13t-27.5 -19q3 -19 11.5 -35.5t17.5 -33
t16 -34.5t8 -39q-18 6 -27 17.5t-15.5 25.5t-13.5 28t-20 23q-11 -13 -20 -27t-17 -28.5t-17 -28.5t-21 -27q-10 5 -25 14q16 29 31.5 58t32.5 59q-9 3 -17 2.5t-15 -3t-13.5 -6t-13.5 -5.5q-16 -3 -27 1.5t-19 24.5q24 9 50 18.5t55 20.5q-8 11 -14.5 18.5t-13.5 15.5
q-6 8 -11.5 15t1.5 20z" />
    <glyph glyph-name="plus" unicode="+" horiz-adv-x="557" 
d="M351 473q0 -20 -9 -31t-19.5 -19t-20.5 -16.5t-11 -23.5q20 0 40.5 1t40.5 -1q9 -1 19.5 -1.5t20 -3.5t18 -9.5t14.5 -19.5q-50 -3 -97.5 -6t-95.5 -7q-45 -63 -87.5 -123.5t-71.5 -132.5q-30 9 -24 38q3 10 7 19.5t9 17.5q16 29 32.5 57t33.5 55q6 12 14.5 24t17.5 28
q-26 -1 -48 -3.5t-43 -7.5q-21 -4 -39 1.5t-33 28.5q8 3 14 6.5t13 4.5q75 10 153 18q15 2 24.5 11t17.5 20q20 23 40.5 47t52.5 45z" />
    <glyph glyph-name="comma" unicode="," horiz-adv-x="229" 
d="M81 219q1 -10 -4.5 -21t-13 -21t-16.5 -18.5t-15 -14.5q-8 -7 -12.5 -8t-6 2t-0.5 8.5t5 11.5q3 6 5 11t0 7q-9 6 -10 15.5t1 19.5q4 13 14 22.5t21.5 11.5t20.5 -3.5t11 -22.5z" />
    <glyph glyph-name="hyphen" unicode="-" horiz-adv-x="595" 
d="M42 275q-5 11 -9.5 19.5t-9.5 15.5q18 13 50 23.5t72.5 18t86 12t89 5.5t81.5 -3t65 -12q2 -3 5 -6t5 -8q2 -3 1.5 -7.5t1.5 -10.5q-28 0 -55 0.5t-53 -0.5q-28 -2 -55.5 -5t-54.5 -7q-28 -3 -55 -6t-55 -8q-28 -4 -54.5 -10t-55.5 -11z" />
    <glyph glyph-name="period" unicode="." horiz-adv-x="280" 
d="M19 217q-3 26 7 40q14 19 30.5 16.5t26.5 -25.5q1 -13 -5.5 -24.5t-16.5 -17.5t-21.5 -4.5t-20.5 15.5z" />
    <glyph glyph-name="zero" unicode="0" horiz-adv-x="459" 
d="M235 636q34 22 63 41t60 34q16 8 33 9t32.5 -4.5t28.5 -16t21 -26.5q8 -15 10.5 -33t3.5 -35q0 -32 -7.5 -62.5t-19.5 -59.5q-29 -72 -71 -135t-96 -118q-55 -57 -121 -106q-17 -13 -37.5 -23t-41.5 -16q-24 -8 -45.5 -4.5t-38.5 15.5t-27.5 31.5t-10.5 43.5q0 23 2.5 47
t8.5 47q26 91 68 174.5t102 157.5q12 15 26 27t28 26q10 -4 17.5 -8t11.5 -6zM31 117q30 2 57 14t52 30q84 60 149 135.5t111 169.5q15 31 24 63.5t17 64.5q5 21 4.5 41.5t-13.5 38.5q-14 7 -26.5 4t-23.5 -9q-16 -10 -32.5 -19.5t-31.5 -20.5q-47 -35 -87 -77.5t-76 -90.5
q-45 -57 -76.5 -120t-34.5 -138q-6 -5 -12.5 -8.5t-12.5 -6.5q-3 -18 -2.5 -36t14.5 -35z" />
    <glyph glyph-name="one" unicode="1" horiz-adv-x="265" 
d="M416 753q5 -24 -2.5 -39.5t-17.5 -29.5q-16 -26 -33 -50l-34 -48q-67 -96 -130.5 -191t-118.5 -198q-8 -14 -15 -29t-15 -30q-11 -23 -20.5 -46.5t1.5 -54.5q-17 9 -27 15.5t-14.5 14t-4.5 16.5t3 22q9 26 18.5 51.5t22.5 50.5q52 106 115.5 204.5t132.5 195.5
q21 29 42.5 58t47.5 64q-14 -4 -22 -6t-13 -5q-68 -35 -128.5 -78.5t-113.5 -97.5q-11 -11 -19 -25.5t-18 -29.5q-21 -4 -38 26q18 35 46.5 62t59.5 53q58 49 120.5 89t137.5 66q11 -9 20 -16t17 -14z" />
    <glyph glyph-name="two" unicode="2" horiz-adv-x="497" 
d="M227 296q31 -4 68 -10.5t67.5 -20t49.5 -35.5t16 -55q-60 42 -120 61t-126 19q-46 -36 -91 -71t-102 -55q-35 -13 -59 11q-11 12 -12.5 24t3 23.5t13.5 21.5t20 18q45 35 95 48.5t99 21.5q60 54 117 111.5t107 123.5q21 30 42 68q6 14 10 28t0 32q-12 9 -25 10.5
t-27 -0.5q-83 -8 -150 -45t-116 -107q-14 -19 -21.5 -41.5t-1.5 -49.5q8 -5 17 -12t18 -15q-27 -5 -43.5 6t-24.5 35q-7 19 -4.5 37.5t11.5 35.5q11 20 24 40t29 37q102 106 249 117h25q22 -2 39 -11.5t27.5 -24.5t13.5 -34t-4 -40q-17 -56 -53 -101q-34 -42 -70 -81.5
t-72 -80.5q-8 -9 -17.5 -18.5zM-14 188q17 4 33 12.5t33 25.5q-24 -5 -39 -14.5t-27 -23.5z" />
    <glyph glyph-name="three" unicode="3" horiz-adv-x="411" 
d="M63 473q73 52 141.5 98.5t135.5 94.5q5 3 19 16.5t24.5 28t11 26t-22.5 11.5q-72 -5 -135 -29t-115 -76q-12 -12 -21 -28t-20 -33q-5 5 -10 11.5t-10 13.5q5 26 17.5 45t29.5 35q112 99 263 94q5 -1 10 -1t10 -2q13 -3 22.5 -11.5t15 -19.5t5 -23t-6.5 -24
q-20 -34 -51 -63.5t-67 -56t-72.5 -50.5t-65.5 -46q14 -5 24.5 -7.5t20.5 -7.5q15 -8 30.5 -17t28.5 -20q50 -43 57.5 -94.5t-27.5 -107.5q-23 -38 -54.5 -68t-69.5 -55q-72 -47 -162 -67q-13 -2 -27 -3t-28 -1q-32 2 -56 22t-32 52q-2 4 1 7.5t6 11.5q11 -15 20 -26
t19.5 -17t23.5 -7t32 2q80 17 147.5 54t121.5 100q17 20 29.5 41t17.5 47q10 59 -43 94q-26 15 -53.5 20t-57.5 5q-11 -1 -22.5 -2t-25.5 -2q-5 8 -11.5 16t-17.5 19z" />
    <glyph glyph-name="four" unicode="4" horiz-adv-x="418" 
d="M168 54q6 -13 10 -22t9 -17l-11 -5q-27 15 -35 30.5t-3 41.5q7 37 20 72.5t29 69.5t32.5 66.5t30.5 65.5q5 11 12 23t16 30q-13 -6 -20 -9.5t-12 -5.5q-35 -16 -69 -31t-69 -29q-11 -5 -24.5 -6t-24.5 -1q-18 0 -32 7.5t-22.5 20t-11 28t3.5 31.5q9 25 24 44
q67 90 142 164t150 147q8 7 17 13.5t20 14.5q8 -8 13.5 -14.5t10.5 -12.5q-7 -11 -12 -20t-8 -14q-14 -8 -24 -13.5t-18 -12.5q-35 -42 -75.5 -81.5t-79.5 -81t-73 -86t-55 -95.5q88 12 163.5 50.5t141.5 91.5q33 25 59 60t51 72t51 72t59 59q8 -8 15 -14t14 -14
q-11 -18 -18 -32t-15 -27q-59 -89 -138 -166q-11 -11 -22 -23t-19 -26q-48 -75 -89.5 -152.5t-76.5 -158.5q-11 -26 -19.5 -53t-17.5 -51z" />
    <glyph glyph-name="five" unicode="5" horiz-adv-x="467" 
d="M161 472q19 5 37.5 12t38.5 12q24 5 49 5t49 -10q46 -19 61 -57t-7 -83q-9 -17 -21 -33.5t-26 -31.5q-60 -63 -132.5 -102.5t-154.5 -63.5q-13 -4 -31 -4q-36 0 -59 20t-17 53q15 -12 27.5 -22.5t31.5 -7.5q49 13 94.5 34.5t88.5 47.5q36 23 68.5 47.5t59.5 56.5
q22 26 29.5 50t0.5 40.5t-29.5 22.5t-60.5 -3q-42 -10 -78.5 -28t-70.5 -42q-13 -9 -25.5 -17.5t-26.5 -19.5q-9 8 -16.5 16t-17.5 18q44 68 96.5 125t103.5 117q-7 4 -15 5.5t-14.5 4.5t-11 9t-4.5 19q8 1 16 3l16 4q73 0 145.5 0.5t145.5 0.5q17 0 31.5 -5.5t19.5 -29.5
q-23 -5 -45.5 -4t-44.5 0q-21 -2 -43 -2h-43h-93q-33 -38 -65 -76l-64 -76q2 -3 7 -5z" />
    <glyph glyph-name="six" unicode="6" horiz-adv-x="323" 
d="M-4 353q-2 14 -8 31q11 6 22 10.5t20 8.5q47 65 93.5 121.5t90 100.5t82 75t69.5 45q7 -5 10.5 -8.5t5 -6.5t1 -7t-1.5 -11q-19 -15 -35.5 -26.5t-32.5 -25.5q-57 -51 -105.5 -108t-93.5 -118q-6 -8 -11 -16.5t-11 -19.5q13 -5 23.5 -8t21.5 -8q32 -13 56.5 -35t38.5 -55
q30 -58 -18 -104q-29 -29 -66 -43t-79 -16q-25 -1 -47.5 11t-38 31.5t-21 43t2.5 46.5l16 46zM8 181q98 -28 171 41q29 26 24.5 57t-36.5 51q-25 15 -51 21t-55 5q-11 -21 -22 -41t-19.5 -41t-12.5 -44t1 -49z" />
    <glyph glyph-name="seven" unicode="7" horiz-adv-x="479" 
d="M357 477q12 -8 26 -11.5t26.5 -8.5t23 -13.5t16.5 -25.5q-18 2 -36 6t-35.5 6.5t-35 1t-35.5 -10.5q-29 -30 -63.5 -72.5t-68 -86.5t-61.5 -86t-43 -72q9 -15 18 -32q-4 -15 -15 -21.5t-26 -9.5q-8 8 -15.5 17t-14.5 17q0 26 9.5 46.5t20.5 40.5q32 55 67.5 106.5
t75.5 100.5q6 7 12 15.5t14 16.5q-43 2 -93 -16t-95 -50q-5 8 -8.5 14t-7.5 14q11 20 27.5 31.5t36.5 17.5q34 13 68.5 22t70.5 19q14 5 28 7t28 6q49 52 95.5 102.5t94.5 101.5q3 3 5.5 8t7.5 11q-45 1 -97 -0.5t-104 -9.5t-101 -23.5t-88 -40.5q-6 8 -12.5 16t-11.5 16
q34 21 87 39t111.5 31t115 18t95.5 -1q31 -4 43 -26.5t-3 -49.5q-7 -11 -14 -21t-16 -19q-23 -27 -47 -53t-47 -52q-8 -8 -14.5 -17t-14.5 -19z" />
    <glyph glyph-name="eight" unicode="8" horiz-adv-x="390" 
d="M67 362q-8 57 1 108t34 92.5t64 72t91 47.5q28 10 56.5 12.5t57.5 -5.5q42 -9 60.5 -41t2.5 -73q-8 -22 -21 -43.5t-28 -41.5q-26 -38 -54 -73t-54 -72q-23 -32 -44.5 -64t-41.5 -61q1 -8 2 -12.5t1 -7.5q6 -21 7.5 -34t-2 -23t-13.5 -18t-28 -19q-8 -5 -14 -11.5
t-11 -11.5q-17 3 -31 6.5t-28 4.5q-20 2 -39.5 6t-37.5 15q-30 20 -43 51t3 70q13 29 31.5 52.5t40.5 43.5q8 8 17.5 14.5t20.5 15.5zM108 339q15 -26 26 -45.5t27 -33.5q30 49 67 94.5t72 92t63.5 95t41.5 102.5q-71 22 -128 1.5t-104 -65.5q-48 -46 -66 -100.5t-2 -102.5
q9 -1 18.5 -0.5t18.5 -1t16 -7t12 -19.5q-15 -2 -29 -4.5t-33 -5.5zM-16 167q33 -24 64.5 -28.5t71.5 9.5q7 19 14 39.5t15 41.5l-32 46t-33 47q-39 -32 -66.5 -68t-33.5 -87z" />
    <glyph glyph-name="nine" unicode="9" horiz-adv-x="482" 
d="M316 501q-8 5 -12 9t-8 7q5 9 14 25.5t18 34.5t16.5 36t9 30.5t-5.5 18.5t-26 0q-20 -5 -39 -11.5t-36 -16.5q-132 -78 -191 -221q-7 -17 -10.5 -35.5t3.5 -38.5q20 -11 39 -6.5t37 11.5q45 20 85.5 47.5t77.5 58.5q50 42 92.5 87.5t83.5 93.5q9 12 18.5 23t20.5 25
q8 -6 15 -11.5t15 -10.5q-2 -8 -3.5 -14.5t-3.5 -11.5q-33 -78 -68 -154t-79 -148q-30 -53 -66.5 -100.5t-82.5 -88.5q-27 -24 -57 -44.5t-65 -33.5q-20 -8 -39.5 -2t-34.5 20t-21.5 34t1.5 42q15 0 21 -7t9 -16.5t5.5 -19.5t10.5 -16q20 0 36.5 10t33.5 21q52 35 95.5 78
t77.5 95q32 50 60.5 101t58.5 103q2 3 2.5 7t4.5 15q-12 -9 -19 -15t-14 -13q-43 -45 -89 -85t-99 -72q-45 -25 -92 -44q-22 -8 -43.5 -3.5t-40.5 20.5q-14 13 -21.5 27.5t-5.5 34.5q2 14 3.5 27t6.5 26q33 84 88.5 145.5t136.5 102.5q15 8 32 12.5t34 5.5q25 2 44 -5.5
t29.5 -22.5t11.5 -35.5t-10 -43.5q-20 -46 -65 -88z" />
    <glyph glyph-name="colon" unicode=":" horiz-adv-x="263" 
d="M19 217q-3 26 7 40q14 19 30.5 16.5t26.5 -25.5q1 -13 -5.5 -24.5t-16.5 -17.5t-21.5 -4.5t-20.5 15.5zM94 353q-3 26 7 40q14 19 30.5 16.5t26.5 -25.5q1 -13 -5.5 -24.5t-16.5 -17.5t-21.5 -4.5t-20.5 15.5z" />
    <glyph glyph-name="semicolon" unicode=";" horiz-adv-x="263" 
d="M88 245q1 -10 -4.5 -21t-13 -21t-16.5 -18.5t-15 -14.5q-8 -7 -12.5 -8t-6 2t-0.5 8.5t5 11.5q3 6 5 11t0 7q-9 6 -10 15.5t1 19.5q4 13 14 22.5t21.5 11.5t20.5 -3.5t11 -22.5zM94 353q-3 26 7 40q14 19 30.5 16.5t26.5 -25.5q1 -13 -5.5 -24.5t-16.5 -17.5t-21.5 -4.5
t-20.5 15.5z" />
    <glyph glyph-name="less" unicode="&#x3c;" horiz-adv-x="388" 
d="M27 292q23 31 80.5 61t163.5 66q4 -5 8.5 -8.5t9.5 -8.5l-3.5 -7t-3.5 -4q-34 -17 -67.5 -33t-67.5 -33q-13 -8 -27 -16t-34 -21q30 -5 51.5 -8.5t41.5 -8.5q21 -3 40.5 -8.5t30.5 -27.5q-4 -3 -6 -6t-4 -3q-38 5 -77 10t-77 11q-14 2 -22 4t-13.5 6t-10.5 12t-13 23z
" />
    <glyph glyph-name="equal" unicode="=" horiz-adv-x="528" 
d="M58 377q-4 7 -8 13.5t-7 12.5q3 5 5 8.5t5 4.5q22 5 45 11.5t46 9.5q54 8 107.5 3.5t106.5 -17.5q21 -5 34.5 -17.5t14.5 -38.5q-43 16 -86 22t-86.5 5.5t-87.5 -6t-89 -11.5zM362 288q-85 8 -165 2.5t-162 -23.5q-7 10 -14 22q5 14 13.5 20.5t20.5 9.5q70 15 140.5 19
t142.5 -11q13 -2 19.5 -10.5t4.5 -28.5z" />
    <glyph glyph-name="greater" unicode="&#x3e;" horiz-adv-x="437" 
d="M296 291q-32 -20 -88.5 -37t-146.5 -34q-3 5 -7 10l-8 10q3 3 4.5 6t3.5 4q36 12 72 23l72 22q14 6 28.5 12t36.5 16q-14 5 -36 10.5t-44.5 11t-42.5 10.5t-29 9q-20 6 -39 14t-26 31q4 3 6.5 5.5t4.5 2.5q18 -5 46.5 -12t59.5 -14t59.5 -14t46.5 -13q12 -4 24 -8.5
t17 -8.5q14 -11 11 -27t-25 -29z" />
    <glyph glyph-name="question" unicode="?" horiz-adv-x="584" 
d="M109 156q-5 7 -10.5 13.5t-13.5 16.5q20 23 39 45t39 42q76 75 152.5 148.5t153.5 148.5q26 24 50 49t49 51q15 17 27.5 35t18.5 41q-5 11 -14.5 14t-20.5 1l-72 -8t-71 -11q-63 -13 -122.5 -34.5t-115.5 -55.5q-26 -16 -49 -34.5t-40 -44.5q-17 -25 -24.5 -50t0.5 -51
q8 -11 20 -14.5t23.5 -7t21.5 -10t13 -23.5q-47 -15 -81 15q-21 20 -31 44.5t-5 55.5q11 58 53 100q26 26 55 45t61 35q51 24 104 41.5t108 30.5q36 8 72 14.5t72 5.5q19 -2 35 -6.5t28 -20.5q28 -40 8 -80q-11 -18 -21.5 -35t-23.5 -31q-48 -57 -104 -110
q-92 -89 -184 -177.5t-184 -177.5q-4 -3 -7.5 -4.5t-8.5 -5.5zM11 66q0 23 13 36q15 17 29.5 12t14.5 -27q0 -12 -5.5 -22.5t-14 -15t-18.5 -1.5t-19 18z" />
    <glyph glyph-name="at" unicode="@" horiz-adv-x="881" 
d="M751 256q10 -14 18 -21q-3 -9 -12.5 -18t-21 -17t-23.5 -14l-20 -10q-96 -51 -195.5 -89t-207.5 -61q-45 -9 -89.5 -12t-90.5 5q-102 19 -153 112q-17 32 -17 65t11 67q13 39 35.5 71t52.5 61q185 184 447 220q35 5 69.5 6.5t69.5 -8.5l28 -10t27 -12q35 -22 50 -58.5
t4 -76.5q-9 -37 -29 -69q-73 -123 -202 -190q-17 -9 -34.5 -14t-38.5 0q-19 9 -27 21t-9 26.5t4 30.5t11 33q-24 -5 -45.5 -16t-42.5 -21.5t-43.5 -18.5t-47.5 -8q-8 7 -15 13.5t-12 9.5q0 13 -0.5 18t0.5 7l9.5 19t10.5 16q92 106 225 147q20 -3 30.5 -12.5t15.5 -25.5
q-3 -14 -4.5 -22.5t-5 -16.5t-9.5 -18t-17 -28q5 -15 2.5 -28t-8 -26.5t-11.5 -27.5t-7 -30q8 1 15 1.5t13 2.5q140 66 218 200q10 15 15.5 32t8.5 34q5 29 -5.5 46t-38.5 28q-34 14 -69 15.5t-70 -3.5q-120 -17 -225 -65t-195 -131q-28 -24 -51.5 -52t-40.5 -60
q-13 -23 -19 -46.5t-8 -49.5q-1 -32 13.5 -53t41.5 -34q35 -17 72 -21.5t75 -2.5q85 4 164 26.5t156 52.5q57 22 111 48t109 50l13 6.5t15 6.5zM433 361q5 11 13 24.5t8 34.5q-112 -42 -181 -132q39 18 78.5 36t81.5 37z" />
    <glyph glyph-name="A" unicode="A" horiz-adv-x="1358" 
d="M962 359q46 0 86 0.5t80 -0.5q44 -1 88 -9q52 -6 68 -55q-16 6 -24 7q-12 5 -25 8t-25 4q-69 4 -136 -1t-135 -10q-5 0 -8 -1.5l-5 -2.5q-30 -37 -58 -79.5t-48.5 -83t-32.5 -74t-11 -52.5q33 5 55.5 23.5t43.5 44.5q8 -5 15 -10.5t14 -8.5q-44 -85 -131 -84
q-35 15 -45.5 37.5t6.5 59.5q17 40 37.5 77.5t40.5 75.5l22 34t24 37q-131 -9 -254 -23.5t-246 -31.5q-42 -48 -77 -96.5t-64 -100.5q2 -7 3 -13.5t3 -13.5q-8 -5 -14.5 -8.5t-12.5 -7.5q-3 2 -5.5 3t-2.5 3q-7 14 -4.5 27.5t9.5 26.5q17 32 35.5 63t37.5 62q6 11 13.5 22
t18.5 26q-36 -6 -71 -11t-69.5 -10.5t-68 -14t-66.5 -22.5q-5 4 -10.5 9t-13.5 10q9 17 25 24.5t31 11.5q40 9 79 17.5t79 16.5q31 6 63 11t65 11q14 14 25 29q79 85 165.5 161.5t186.5 142.5q54 36 111.5 66.5t119.5 53.5q27 9 53 15t52 11q19 4 38 -1t34 -16.5t22.5 -28
t3.5 -34.5q-5 -20 -11 -40t-17 -38q-24 -39 -49 -79t-51 -79q-14 -22 -29 -44t-33 -47zM1107 726q-43 1 -85.5 -9t-84 -27t-80 -38t-73.5 -43q-102 -63 -189 -136t-166 -154q-5 -4 -6.5 -8t-5.5 -10q122 14 240.5 27t243.5 27q38 60 79.5 121t83.5 124q6 10 15 26.5t17 34.5
t12 35.5t-1 29.5z" />
    <glyph glyph-name="B" unicode="B" horiz-adv-x="938" 
d="M-107 97q26 -21 52.5 -33t54 -18t56.5 -7.5t60 -1.5q-29 26 -29.5 52.5t10.5 52.5q17 43 36.5 85.5t39.5 84.5q7 14 12.5 26.5t-8.5 29.5q25 6 37 19.5t22 30.5q38 57 79 111.5t92 103.5q8 8 16.5 15t16.5 15q4 2 7.5 3.5t10.5 5.5q8 -5 14.5 -9t14.5 -9q-4 -9 -6 -17.5
t-5 -17.5q-6 -1 -13 -2t-14 -3q-45 -48 -83.5 -100.5t-76.5 -114.5q24 8 42 13.5t35 10.5q114 38 221.5 86t210.5 108q17 10 43.5 26t52.5 35t46.5 40t26.5 40q-20 14 -51.5 19t-66 5t-67.5 -3l-55 -5q-88 -8 -171.5 -24t-166.5 -43q-55 -17 -107.5 -41t-101.5 -55
q-19 -12 -36 -25t-35 -26q3 -11 6 -18.5t7 -16.5q-25 1 -33 12t-14 25q5 20 19 31.5t29 23.5q45 33 95 59t104 47q85 34 171 55t177 32q35 4 68.5 7.5t68.5 4.5q29 1 58.5 -0.5t57.5 -6.5q26 -4 46 -16t30 -38q12 -30 -5 -55q-17 -24 -38 -41q-33 -23 -65.5 -46t-67.5 -42
q-70 -39 -142.5 -72.5t-147.5 -63.5q-12 -5 -22.5 -11t-21.5 -14q46 -5 96 -9q36 -3 71 -11.5t67 -23.5q25 -12 43.5 -29t29.5 -42q28 -54 -13 -98q-15 -18 -32.5 -34t-37.5 -30q-69 -47 -145.5 -77t-158.5 -48q-69 -15 -139 -22t-141 -4q-37 2 -74 6.5t-72 18.5
q-18 6 -34 15.5t-32 19.5q-11 6 -16.5 17.5t-7.5 31.5zM768 292q-14 20 -34 29.5t-42 16.5q-36 13 -74 18.5t-76 8.5q-54 2 -107 -1.5t-105 -8.5q-20 -2 -39.5 -6.5t-35.5 -8.5q-21 -33 -39.5 -66.5t-32.5 -63.5t-23 -54t-11 -39q11 8 17.5 3.5t12.5 -13.5q0 -4 0.5 -7.5
t-0.5 -6.5q-6 -14 -12.5 -27l-14.5 -29h38q126 8 242.5 40.5t223.5 95.5q19 11 37 23.5t33.5 26.5t26.5 31t15 38z" />
    <glyph glyph-name="C" unicode="C" horiz-adv-x="1131" 
d="M1014 290q17 -19 19 -30.5t-6.5 -20.5t-25.5 -18t-37 -24q-146 -89 -306.5 -144t-323.5 -71q-49 -5 -97.5 -2t-97.5 17q-29 9 -53 23t-45 35q-63 58 -35 141q14 40 36 75t50 65q22 26 45.5 50.5t49.5 46.5q133 115 280 199.5t315 134.5q39 11 78 19t81 6q31 -2 59 -12
t51 -32q33 -30 39 -68.5t-19 -75.5q-39 -62 -95 -99t-128 -53q-10 -2 -20.5 -3.5t-21 0.5t-21.5 7.5t-21 16.5q79 15 148.5 52.5t111.5 97.5q23 32 24.5 55.5t-11 38.5t-35 23t-49 10t-53.5 -2t-47 -12q-96 -23 -183.5 -62t-171.5 -89q-97 -56 -185.5 -121t-163.5 -149
q-25 -27 -47 -57.5t-39 -64.5q-20 -47 -13.5 -78.5t29.5 -50.5t58 -27.5t74 -10.5t76.5 1t64.5 7q152 22 291 75t273 126q23 13 47 26.5t51 28.5z" />
    <glyph glyph-name="D" unicode="D" horiz-adv-x="1098" 
d="M103 20q-8 -8 -10 -16t-0.5 -16.5t4 -16.5t3.5 -17q-29 5 -40 23t-13 43q-20 4 -39.5 6t-39.5 7q-19 4 -38 8.5t-37 12.5q-19 8 -31 24.5t-7 42.5q6 -4 11 -6.5t7 -7.5q8 -12 19.5 -17.5t25.5 -8.5q33 -5 68 -9.5t73 0.5q4 9 7.5 17t6.5 18q45 118 102.5 229t135.5 214
q25 34 53.5 65t62.5 58q13 8 26 17.5t30 11.5q3 -2 6.5 -3.5t5.5 -3.5q5 -5 8 -9.5t8 -10.5q-2 -8 -5 -16t-7 -17q-7 2 -14 3t-13 2q-27 -22 -62.5 -65t-73 -96.5t-74 -113.5t-66 -116.5t-50 -105t-24.5 -78.5q45 2 87.5 6.5t85.5 14.5q171 39 321 114t280 187q23 20 46 44
t42 49.5t32 53t16 55.5q10 66 -45 108q-38 27 -81.5 41.5t-89.5 20.5q-228 27 -431 -70q-38 -17 -71 -39.5t-62 -51.5q-17 -15 -31.5 -33t-18.5 -47q-11 12 -17 19.5t-11 13.5q1 6 1 9.5t2 5.5q8 23 22.5 41t31.5 33q51 49 113.5 80t131.5 52q97 29 195 34.5t198 -20.5
q49 -10 97 -38q37 -21 62 -50t35.5 -63t7 -71.5t-22.5 -74.5q-24 -50 -59.5 -90t-78.5 -76q-127 -104 -271 -175.5t-309 -106.5q-44 -11 -90 -14.5t-92 -8.5q-12 -2 -23.5 -2.5t-21.5 -2.5z" />
    <glyph glyph-name="E" unicode="E" horiz-adv-x="1012" 
d="M231 424q-31 -7 -55 -11.5t-49 -8.5q-4 6 -7.5 12.5t-5 11.5t1.5 9.5t12 7.5q38 11 77 20t78 20q3 2 8 3t16 3q16 18 36 39t41 44q19 20 37.5 42t39.5 45q7 -6 12.5 -11.5l10.5 -10.5q-8 -20 -19.5 -36t-25 -31.5t-28 -31t-26.5 -33.5q28 4 52 8t47 6q53 4 105.5 8
t104.5 7q6 1 12 0.5t13 -1.5q11 -1 17.5 -3t11 -6.5t7.5 -13.5t7 -24q-10 -10 -29 -25q-5 8 -10.5 15.5t-10.5 15.5q-99 -8 -195 -21t-193 -30q-4 -2 -7.5 -4t-5.5 -4q-70 -70 -136.5 -141.5t-126.5 -149.5q-23 -29 -42 -62q-12 -23 -12 -38t9.5 -22.5t27 -8.5t38.5 4
q63 13 124 25t122 26q117 27 231.5 55t231.5 56q15 4 30 6t32 4q5 -8 9.5 -15.5t11.5 -15.5q-10 -4 -16 -6t-11 -4q-154 -37 -305 -74.5t-304 -74.5q-47 -12 -93.5 -20.5t-94.5 -6.5q-18 1 -34.5 6t-29.5 19q-19 20 -24.5 43.5t7.5 48.5q22 49 52 86q45 53 91.5 103.5
t91.5 102.5q9 10 18 19.5t22 23.5zM1075 695q-52 19 -114.5 32.5t-130 21t-138 9t-137.5 -4.5q-48 -4 -99 -14t-99 -27.5t-89 -43.5t-68 -62q-15 5 -19.5 16t-7.5 22q2 15 8.5 25.5t16.5 18.5q46 36 113 59.5t144.5 37t160.5 17t162 -2t149 -18t120 -31.5q19 -7 26 -18
t2 -37z" />
    <glyph glyph-name="F" unicode="F" horiz-adv-x="864" 
d="M747 421q-20 5 -36.5 9t-32.5 5q-21 2 -54 2.5t-72.5 0t-81.5 -1.5t-81.5 -3t-72.5 -4t-54 -5q-14 -12 -37 -39.5t-50.5 -63t-57 -77t-56.5 -81t-49 -74.5t-34 -59q4 -8 9 -16.5t13 -19.5q-14 -8 -26 -14.5t-24 -13.5q-20 18 -33 30q2 29 12.5 50.5t22.5 41.5
q47 72 94.5 142.5t95.5 141.5l16 22t19 27q-42 -4 -80 -7.5t-77 -7.5q-7 13 -14 25q7 11 11 13q23 5 44 10.5t43 10.5q30 5 60.5 8t62.5 6q25 26 51.5 55t55.5 55q26 26 54.5 50.5t60.5 51.5h-324q-2 -2 -7.5 -6.5t-11.5 -9.5q-14 8 -12.5 18.5t0.5 20.5q4 5 6.5 8t5.5 5
l26 6t27 3q131 7 261 12t261 11q69 3 137 8.5t137 9.5q17 2 31.5 1t29.5 -1q2 -4 0 -10.5t-5.5 -13.5t-6 -12.5t-1.5 -8.5q-59 -14 -117.5 -18.5t-118.5 -7t-121 -4.5t-124 -9q-45 -38 -78 -67.5t-57 -53.5t-41.5 -44.5t-30.5 -40.5q11 -1 19 -1h17h132.5t132.5 -1
q22 0 43 -3.5t42 -8.5q19 -4 32 -15.5t14 -36.5z" />
    <glyph glyph-name="G" unicode="G" horiz-adv-x="1413" 
d="M1024 296l26 -28q-2 -14 -10 -21.5t-16 -15.5l-46 -48t-44 -50q-26 -31 -44.5 -66t-24.5 -79q-8 6 -14.5 9.5t-11.5 7.5q0 44 17 79.5t40 73.5q-134 -72 -276 -117t-286 -59q-49 -5 -97.5 -2t-97.5 17q-29 9 -53 23t-45 35q-63 58 -35 141q14 40 36 75t50 65
q22 26 45.5 50.5t49.5 46.5q133 115 280 199.5t315 134.5q39 11 78 19t81 6q31 -2 59 -12t51 -32q33 -30 39 -68.5t-19 -75.5q-39 -62 -95 -99t-128 -53q-10 -2 -20.5 -3.5t-21 0.5t-21.5 7.5t-21 16.5q79 15 148.5 52.5t111.5 97.5q23 32 24.5 55.5t-11 38.5t-35 23t-49 10
t-53.5 -2t-47 -12q-96 -23 -183.5 -62t-171.5 -89q-97 -56 -185.5 -121t-163.5 -149q-25 -27 -47 -57.5t-39 -64.5q-20 -47 -13.5 -78.5t29.5 -50.5t58 -27.5t74 -10.5t76.5 1t64.5 7q152 22 291 75t273 126zM1325 301q-16 12 -34 14t-35 0q-51 -1 -100.5 -2t-100.5 -6
q-68 -7 -136 -17t-139 -20q-8 2 -15 8t-10 17q3 2 5.5 5t6.5 4q104 28 208 43t213 13q22 0 43 -2.5t43 -4.5q44 -5 51 -52z" />
    <glyph glyph-name="H" unicode="H" horiz-adv-x="1027" 
d="M461 823q8 -7 13 -11t7 -6q3 -20 -5.5 -29t-12.5 -18q-47 -69 -92.5 -136.5t-90.5 -133.5q-5 -6 -6.5 -10.5t-3.5 -8.5l2 -6q1 -1 4 -1q6 0 11 -0.5t10 0.5q123 14 245 24t248 15q56 69 114.5 135t125.5 126q5 2 8.5 4.5t7.5 4.5q4 -2 7 -4t5 -4q4 -2 5.5 -5.5t5.5 -8.5
q-20 -33 -51 -61q-22 -21 -41.5 -45.5t-38.5 -48.5l-34 -44t-35 -46q11 -8 22 -9t22 -4q23 -2 43 -13t30 -39q-6 -5 -11 -10t-13 -11q-11 10 -18 17l-18 18h-95q-14 -23 -29.5 -44.5t-29.5 -41.5q-54 -85 -101 -172t-85 -180q-8 -16 -13 -33l-10 -34q-2 -9 -3 -19.5
t-3 -24.5q11 2 20 2h20q5 -4 11.5 -10t13.5 -12q-14 -14 -30 -15.5t-32 6.5q-17 8 -31 21.5t-15 33.5q-2 23 3 46q18 60 40 116q35 87 79 168t97 159q5 6 8.5 14t10.5 20q-134 -12 -262.5 -23t-257.5 -23q-55 -92 -104.5 -185t-87.5 -196q9 -2 14.5 -2.5t10.5 -3.5
q6 -2 11 -6t10 -7q-10 -11 -18 -16t-17 -4.5t-20.5 7.5t-27.5 19v21.5t2 21.5q3 17 8.5 35.5t13.5 35.5q28 59 56 116t55 114q5 10 9.5 19.5t10.5 20.5q-16 2 -31.5 0.5t-30.5 -3.5t-30.5 -3.5t-31.5 0.5q3 -6 5.5 -10t4.5 -8q1 -2 1 -4t2 -4q-5 -3 -13 0t-17.5 10t-19 17
t-16.5 21q22 15 49 18t56 7q26 4 53 7.5t54 7.5q61 97 124 189.5t144 179.5z" />
    <glyph glyph-name="I" unicode="I" horiz-adv-x="833" 
d="M285 146q68 4 133.5 12t132.5 6q21 -2 40.5 -4t39.5 -3q42 -3 49 -42q-3 -14 -11 -18.5t-21 -6.5q-6 5 -12.5 10t-14.5 10q-30 3 -80 2t-104 -5.5t-105 -12t-84 -16.5q-6 -14 -12.5 -29t-9.5 -30t0 -31.5t16 -33.5q-18 2 -29 7.5t-17 18t-7 35t1 57.5
q-54 -5 -104.5 -18.5t-104.5 -24.5q-11 13 -25 28q24 13 56.5 23t68 19t71 17t65.5 17q150 329 418 594q-71 3 -135.5 -4t-127.5 -15q-64 -8 -126.5 -21.5t-120.5 -42.5q-21 23 2 40q12 8 25 14.5t25 10.5q39 12 77.5 23.5t77.5 18.5q91 15 180.5 23.5t182.5 6.5
q51 -1 100 -8.5t98 -19.5q13 -5 25.5 -9.5t24.5 -9.5q23 -11 26 -40q1 -5 -2.5 -11t-6.5 -13q-12 11 -19 17.5t-13.5 10t-15.5 6t-25 6.5q-48 12 -95.5 15.5t-95.5 5.5q-11 -25 -20 -49t-20 -50q-10 9 -23 16q-22 -20 -53.5 -57t-67.5 -84t-73 -99t-68.5 -101t-54.5 -91.5
t-31 -69.5z" />
    <glyph glyph-name="J" unicode="J" horiz-adv-x="714" 
d="M4 137q-4 -7 -6.5 -12.5t-5.5 -10.5q-24 18 -30.5 31t1.5 26q8 11 25 14.5t37 -7.5q18 -11 34.5 -24.5t31.5 -28.5q14 -13 25.5 -28t22.5 -30q11 -13 23 -22.5t29 -11.5q20 3 36 11.5t31 21.5q42 32 76.5 71t66.5 80q76 94 141.5 192t127.5 201q15 23 29.5 46.5
t28.5 46.5q-34 8 -103 3t-165 -22q-67 -11 -133.5 -22t-135.5 -22l-7.5 15t-8.5 15q5 3 8 6t5 4q34 9 66.5 19t65.5 17q88 18 175.5 32t176.5 19q104 6 209 9q9 0 19 -1.5t21 -3.5q4 -10 8.5 -19t8.5 -19q-6 -10 -14 -15t-17 -8t-19 -5t-19 -6q-29 30 -69 17
q-28 -34 -51.5 -70.5t-45 -74.5t-43.5 -76t-46 -75q-59 -94 -121 -183t-137 -170q-17 -18 -35.5 -35t-38.5 -31q-39 -28 -71 -24t-65 38q-14 14 -26 30t-26 31l-16 20t-18 19q-11 11 -24.5 18t-31.5 4z" />
    <glyph glyph-name="K" unicode="K" horiz-adv-x="1091" 
d="M974 725q6 -8 9.5 -15.5t8.5 -13.5q-3 -4 -5 -7.5t-4 -5.5q-80 -57 -164.5 -102t-172.5 -87q-89 -42 -179 -76.5t-182 -63.5q-9 -2 -18 -6t-17 -8l-6 -12q20 -1 38 -6q11 0 21 -2l20 -4q76 -13 151 -25.5t150 -26.5q60 -11 119 -22t119 -22q17 -3 33.5 -8t27.5 -20
q3 -5 5 -11t7 -14q-93 16 -181.5 31.5t-179.5 29.5q-44 7 -88 15.5t-88 16t-88 13t-88 6.5q-9 -6 -10 -8q-34 -64 -62 -128.5t-49 -133.5q-2 -7 -3.5 -14t-3.5 -14q-3 -14 -4 -22t0 -16.5t4 -20t9 -31.5q-23 10 -38 26t-14 41l4 46t10 46q17 48 35.5 96t37.5 97
q4 10 7.5 19.5t8.5 23.5h-149q-7 10 -13 18.5t-12 19.5q29 15 58.5 18.5t57.5 10.5q27 8 54.5 14t53.5 14q64 112 135.5 213.5t160.5 188.5q11 12 24 22.5t26 22.5q8 -8 14.5 -15t15.5 -15q-90 -85 -159 -182t-135 -204q11 1 17.5 1t12.5 2q161 55 313.5 125.5t299.5 159.5
q10 6 20.5 11.5t24.5 13.5z" />
    <glyph glyph-name="L" unicode="L" horiz-adv-x="833" 
d="M328 444q-41 -54 -80.5 -109.5t-79.5 -110.5q-6 -9 -14 -25q71 10 138 11.5t135 -4.5q64 -5 125 -17.5t119 -34.5q11 -5 22 -9.5t19 -12.5q7 -6 11.5 -15t6.5 -19q2 -4 -11 -24q-7 15 -16.5 24t-21 15t-24.5 9.5t-26 7.5q-81 22 -162.5 29.5t-163.5 5.5
q-39 -2 -77.5 -5.5t-76.5 -6.5q-11 -2 -20 -4t-20 -4q-15 -19 -28 -37t-27 -35q-7 -11 -7 -17q2 -11 -0.5 -18.5t-8.5 -13.5t-14.5 -10.5t-17.5 -9.5q-9 7 -17 14.5t-16 13.5q0 13 4.5 23.5t10.5 21t12 20.5t10 21q-33 -5 -61 -20.5t-62 -26.5q-3 4 -8 8t-9 7q4 8 5.5 11.5
t3.5 5.5q28 20 58.5 33t62.5 26q13 5 27.5 9.5t29.5 9.5q32 43 63.5 85.5t64.5 85.5q56 72 111.5 142.5t113.5 140.5q35 42 76 77t88 65q35 21 70 31q30 9 51 -6.5t20 -44.5q0 -11 -3 -22t-8 -20q-10 -16 -21 -31t-25 -29q-51 -56 -109 -104t-124 -91q-12 -8 -25.5 -14.5
t-28.5 -14.5q-8 8 -15 14.5t-15 13.5q41 20 81 47.5t77.5 59t71.5 65t63 66.5q19 20 27 36t15 40q-34 -8 -59 -24.5t-48 -33.5q-38 -29 -70 -61t-61.5 -66.5t-56.5 -71t-55 -72.5z" />
    <glyph glyph-name="M" unicode="M" horiz-adv-x="796" 
d="M239 227q20 10 38 22.5t34 26.5q57 52 113 104l112 104q79 75 157.5 147t164.5 139q23 18 45.5 35t48.5 29q17 -3 24.5 -12t13.5 -20q0 -16 -9.5 -27.5t-18.5 -23.5q-32 -38 -62.5 -75t-62.5 -75q-83 -103 -153 -213t-125 -230q-10 -20 -17.5 -42t-14.5 -44
q-9 -29 -7 -53t28 -41q-32 2 -52 16.5t-23 38.5q-5 29 4.5 58t17.5 55q35 90 80 173t103 162q30 43 63 84t66 83q4 5 6.5 11t2.5 14q-7 -6 -15 -12t-16 -15q-75 -70 -149.5 -140t-149.5 -141q-32 -31 -63.5 -60.5t-64.5 -58.5q-17 -14 -36.5 -28t-38.5 -26
q-14 -8 -24.5 -11.5t-20.5 -3t-19.5 6t-22.5 14.5q-5 3 -8.5 7t-6.5 8q-11 30 3 57q13 30 26.5 58t28.5 57q35 63 77.5 120.5t86.5 114.5q11 14 20.5 29t17.5 32q-5 -4 -11 -7.5t-11 -8.5q-61 -54 -114 -113.5t-100 -125.5q-61 -85 -120 -171.5t-120 -172.5
q-7 -11 -12.5 -21.5t-11.5 -21.5q-13 -5 -21.5 -1t-18.5 14q4 8 6.5 15.5t7.5 16.5q24 38 47.5 76t49.5 76q60 90 123 178.5t137 172.5q42 48 87.5 91.5t98.5 81.5q14 10 28 18t31 18q10 -8 18.5 -14.5t15.5 -11.5q6 -15 0.5 -24.5t-11.5 -20.5q-13 -20 -26.5 -39.5
t-27.5 -39.5q-41 -57 -82.5 -113.5t-79.5 -115.5q-21 -33 -39.5 -66.5t-35.5 -66.5q-6 -13 -9.5 -26t-8.5 -25q2 -2 4 -3.5t4 -2.5z" />
    <glyph glyph-name="N" unicode="N" horiz-adv-x="833" 
d="M429 797q10 -8 16 -12.5t13 -10.5q-20 -32 -37.5 -60.5t-35.5 -56.5q-14 -20 -23.5 -40.5t-14.5 -44.5q-11 -75 -27 -148t-19 -148q-2 -31 -2.5 -65.5t7.5 -66.5q6 -23 13.5 -34.5t18 -14t24.5 2.5t32 16q25 14 47 32t42 39q39 42 70.5 88.5t60.5 86.5
q66 101 118.5 205.5t96.5 213.5q5 11 6.5 23t4.5 26q14 7 23.5 2t17.5 -14q5 -17 -1.5 -32.5t-11.5 -31.5q-29 -78 -63 -152t-78 -146q-34 -58 -71 -115.5t-76 -113.5q-21 -29 -45.5 -56t-50.5 -54q-11 -11 -25.5 -21.5t-29.5 -19.5q-21 -14 -44 -18t-44.5 0.5t-39.5 17
t-30 32.5q-18 30 -23.5 63.5t-5 68.5t5.5 69.5t9 65.5q3 29 10.5 58t12.5 63q-8 -9 -14 -15.5t-10 -12.5q-59 -89 -116 -176.5t-115 -177.5q-6 -9 -9.5 -18.5t-5.5 -20.5q-5 -14 -11.5 -26.5t-23.5 -24.5q-10 4 -19.5 8t-22.5 9q5 14 9.5 27t11.5 26q26 45 51 90t55 90
q51 78 103 153t108 150q23 34 39.5 68t22.5 73q2 10 4.5 20l4.5 18q10 2 15.5 -0.5t8.5 -7t6 -9.5t8 -8q11 14 22.5 30t26.5 38z" />
    <glyph glyph-name="O" unicode="O" horiz-adv-x="805" 
d="M67 183q-13 12 -26 21.5t-24 22.5q-32 40 -33 83.5t16 88.5q22 60 57 111t79 97q54 56 117 98.5t136 70.5q54 20 109 27t110 -3q22 17 49 35.5t61 22.5q5 -8 9.5 -16.5t9.5 -19.5q-20 -9 -37.5 -18.5t-37.5 -24.5q7 -6 13 -11.5t13 -10.5q36 -30 51 -70t15 -83t-11 -86.5
t-26 -80.5q-27 -65 -68 -122.5t-91 -108.5t-106 -94t-113 -77q-29 -17 -61 -27.5t-66 -16.5q-36 -6 -65.5 4t-49.5 31t-30 50t-7 60q2 11 3.5 22t3.5 25zM691 563q-45 -51 -106.5 -108.5t-135 -111t-156 -96t-167.5 -63.5q-19 -30 -22.5 -60t7 -52t35 -31t63.5 2
q29 8 57.5 17.5t55.5 23.5q118 66 211.5 164t146.5 222q17 42 30 86t10.5 83t-26 67.5t-79.5 39.5q-4 -2 -7.5 -3t-5.5 -5q-85 -64 -162.5 -134.5t-144.5 -152.5q-20 -23 -40 -49t-39 -53t-35.5 -55t-28.5 -55q74 24 142 66t132 91t125.5 100.5t122.5 94.5q5 -8 8.5 -14
t8.5 -14zM86 237q7 11 10.5 17t6.5 11q37 74 85.5 137t102.5 124q56 63 118 118t127 109q-15 -2 -24.5 -2t-17.5 -2q-57 -10 -107.5 -33.5t-98.5 -55.5q-82 -56 -143.5 -128.5t-99.5 -164.5q-6 -17 -12 -39.5t-4 -42.5t14.5 -34t42.5 -14z" />
    <glyph glyph-name="P" unicode="P" horiz-adv-x="864" 
d="M183 554q-12 14 -19 24t-9 19t1 18.5t11 21.5q21 35 50.5 61.5t65.5 46.5q36 19 74 32t77 21q102 21 201.5 19t200.5 -33q35 -10 73 -32q47 -26 71 -76q11 -29 10.5 -56.5t-17.5 -53.5q-25 -35 -57 -64q-37 -33 -77.5 -59.5t-83.5 -50.5q-103 -57 -210 -103t-220 -82
q-23 -7 -39 -19t-25 -35q-13 -33 -28 -66t-29.5 -66.5t-26.5 -67.5t-19 -70q-12 6 -19.5 10.5t-11 10t-3.5 13t3 18.5q8 27 15.5 55t18.5 54q11 31 23.5 61t25.5 65q-27 -4 -54 -10.5t-54 -12t-54.5 -7.5t-56.5 4q-5 8 -11 18t-10 17q0 17 6 26.5t16 16.5q16 11 31 21.5
t32 20.5q66 36 131.5 72t131.5 71q18 10 32 21t25 28q14 23 29 44t31 44q8 11 17 20.5t20 22.5q8 -6 14.5 -11.5t14.5 -10.5q-2 -13 -3.5 -25.5t-3.5 -26.5h-24q-5 -8 -9.5 -15.5t-9.5 -14.5q8 -6 8 -5q13 3 25.5 7.5t26.5 8.5q5 -6 8.5 -11t7.5 -10q-4 -5 -5.5 -8.5
t-4.5 -5.5q-23 -11 -44.5 -23t-44.5 -23q-18 -8 -29.5 -19t-20.5 -28q-12 -23 -25.5 -46.5t-29.5 -51.5q11 2 18.5 2t12.5 2q118 44 230 95t218 118q40 26 79 56.5t62 69.5q16 30 12 49t-30 38q-30 21 -68 34q-26 10 -52.5 17t-52.5 11q-97 16 -191 11t-186 -37
q-32 -11 -65 -27t-60.5 -38.5t-46 -51t-20.5 -63.5zM48 196q51 3 99 15t98 26q7 13 14 24.5t13 23.5q6 13 12.5 26t12.5 26q-66 -29 -128 -63t-121 -78z" />
    <glyph glyph-name="Q" unicode="Q" horiz-adv-x="734" 
d="M130 67q-17 0 -33 0.5t-31 -0.5q-20 -2 -40 7.5t-35.5 26t-24 37.5t-5.5 44q5 41 20 78q14 39 37 73.5t48 66.5q141 183 348 293l19 9.5t13.5 5.5t14 2.5t20.5 0.5q9 -9 13 -18q3 -5 3.5 -11.5t2.5 -16.5q14 11 27.5 21t27.5 20q48 36 99 67t107 54q25 9 48.5 14.5
t48.5 0.5q31 -24 37.5 -43t-6.5 -51q-16 -44 -42 -85q-39 -63 -87 -119t-100 -110q-63 -63 -129 -119t-138 -107q-54 -38 -108.5 -69.5t-114.5 -54.5q-6 -33 -2 -56t20 -36.5t44 -18.5t71 -4q3 -4 6 -9t8 -11q-13 -11 -27 -12.5t-27 -1.5q-48 -2 -84 33.5t-49 98.5zM861 808
q-8 0 -13 1t-9 -1q-29 -11 -57.5 -20t-53.5 -23q-151 -85 -271.5 -197.5t-214.5 -258.5q-21 -34 -36.5 -69t-26.5 -73q-1 -5 -2 -12t-2 -18q38 14 70.5 31.5t61.5 37.5q115 75 217 162t192 190q36 42 68 84.5t57 91.5q9 16 17 33t3 41zM450 662q-6 -1 -14 -6
q-107 -61 -197 -140.5t-161 -181.5q-20 -29 -36.5 -59.5t-31.5 -62.5q-10 -20 -13.5 -43t10.5 -49q31 -14 62 -12.5t62 15.5q8 67 30.5 123.5t55.5 110.5q47 71 102.5 133t118.5 119q8 8 18.5 16.5t24.5 19.5q-8 8 -12.5 12t-5.5 5h-13z" />
    <glyph glyph-name="R" unicode="R" horiz-adv-x="889" 
d="M214 297q51 -8 98 -15.5t95 -15.5q75 -13 150.5 -25.5t150.5 -25.5q8 -2 15.5 -3.5t14 -5.5t11 -11.5t5.5 -19.5q-73 7 -145 17.5t-144 22l-144 23t-145 20.5q-49 -60 -96 -119t-97 -121q-8 8 -15.5 15t-15.5 15q38 54 75.5 106.5t78.5 107.5q-22 5 -39.5 8.5t-35.5 5.5
q-20 2 -32 12.5t-14 36.5q27 14 55 23.5t57.5 18t58.5 16.5t58 18q72 81 144 160.5t144 160.5q-24 1 -55 -6.5t-62 -21t-59.5 -31.5t-46.5 -37q1 -6 1.5 -12.5t2.5 -14.5q-3 0 -6.5 -1t-3.5 0q-23 24 -23 40.5t23 35.5q11 11 25 19l28 16q60 31 122.5 46.5t128.5 24.5
q55 6 109.5 5.5t109.5 -5.5q38 -5 73 -12t69 -19q15 -7 30 -14.5t27 -18.5q29 -23 29.5 -53.5t-28.5 -53.5q-23 -19 -49 -34t-54 -26q-55 -20 -111.5 -38t-113.5 -34q-86 -24 -171 -46t-172 -45q-24 -7 -38 -12t-24.5 -13.5t-21 -23t-27.5 -40.5zM329 445q3 -3 9 -7
q47 13 93.5 24.5t93.5 25.5q78 21 156 43.5t156 46.5q15 5 40 15t49.5 24t43 30t20.5 33q-43 29 -94 44.5t-104 20.5t-106 2t-99 -10q-65 -73 -129 -145.5t-129 -146.5zM94 308h48q5 5 9 11.5t12 18.5q-22 -7 -38 -11t-31 -9v-10z" />
    <glyph glyph-name="S" unicode="S" horiz-adv-x="928" 
d="M-149 39q11 5 20.5 10t18.5 9q15 -8 29 -9t28.5 1t28.5 5t28 5q81 12 165 24t165.5 26.5t159 33t146.5 44.5q18 7 43 16.5t41.5 21t15 24t-37.5 25.5q-58 21 -119 32.5t-123.5 18.5t-124.5 12.5t-122 13.5q-25 4 -48.5 9.5t-47.5 13.5q-11 4 -22.5 9t-22.5 12
q-34 26 -39 63t24 68q20 23 43.5 41.5t48.5 33.5q60 38 125.5 63.5t134.5 45.5q94 29 190 43.5t193 19.5q27 1 53.5 -2.5t52.5 -5.5q8 -2 17 -5.5t16 -8.5q23 -17 27 -44t-14 -50q-5 -8 -12 -14t-15 -11q-61 -43 -126.5 -72.5t-139.5 -37.5q-17 -2 -32.5 -0.5t-24.5 26.5
q8 2 16 5t16 4q75 8 142 38.5t127 75.5q9 6 17.5 13.5t11.5 15t-1.5 13.5t-21.5 9q-51 11 -101.5 7.5t-100.5 -8.5q-97 -12 -190.5 -33.5t-185.5 -56.5q-50 -20 -98 -43.5t-91 -55.5q-22 -16 -40.5 -34t-28.5 -47q13 -17 39.5 -27t56.5 -16t59 -8.5t47 -4.5
q100 -12 198.5 -21.5t197.5 -32.5q22 -8 44.5 -15.5t40.5 -19t30.5 -29t14.5 -44.5q-2 -20 -13.5 -34t-27.5 -22q-42 -25 -92 -45q-73 -27 -146.5 -44t-148.5 -31q-82 -14 -164.5 -27t-166.5 -26q-32 -4 -64.5 -6.5t-66.5 -4.5q-12 0 -19 0.5t-12 5t-9.5 14t-11.5 25.5z" />
    <glyph glyph-name="T" unicode="T" horiz-adv-x="599" 
d="M468 604q-4 18 -17.5 28t-31 16t-36.5 8t-32 4q-73 5 -144.5 -1.5t-143.5 -23.5q-17 -5 -34 -8t-35 -8q-7 7 -11.5 13.5t-11.5 14.5q13 12 26 16t26 7q83 18 165 36t164 33q69 13 139 22t139 18q97 14 194.5 18t196.5 2q18 -1 36.5 -3.5t37.5 -6.5q20 -3 30.5 -15.5
t13.5 -32.5q0 -3 -3.5 -6.5t-6.5 -8.5q-29 20 -62 22t-67 1q-42 -2 -90.5 -3.5t-95 -4t-86.5 -6.5t-66 -10q-40 -42 -77 -78.5t-75 -78.5q-5 -4 -8 -10t-5 -12q-16 -63 -50 -115t-73 -100q-29 -35 -59 -69t-62 -66q-52 -51 -105 -101t-106 -101l-20 -16t-21 -16
q-10 8 -18.5 16t-19.5 18q9 15 16.5 29t17.5 27q26 35 53 69.5t56 68.5q85 97 170.5 194t171.5 194l10 14t10 12zM383 691q73 -20 112 -62q39 37 84 84q-15 2 -41.5 0.5t-55.5 -5t-56 -8.5t-43 -9zM171 179q27 18 64 54.5t72.5 77.5t63.5 80t38 63q-63 -66 -122 -134.5
t-116 -140.5z" />
    <glyph glyph-name="U" unicode="U" horiz-adv-x="716" 
d="M161 321l-8.5 8.5t-6.5 8.5q2 4 2.5 7t4.5 6q38 39 77 77t76 78q38 38 73 77t71 77q5 5 8 11.5t5 16.5q-5 -4 -10.5 -7.5t-10.5 -8.5q-111 -97 -211 -203t-183 -229q-17 -24 -32.5 -49.5t-29.5 -51.5q-4 -8 -6 -12.5t-3 -9.5t-1 -11.5v-17.5q19 2 36 10.5t32 19.5
q53 38 104 75t102 79q88 72 172 145.5t171 145.5q69 60 139 117t140 115q3 2 6.5 4t9.5 5q6 -7 11 -14t11 -15q-35 -39 -69 -76.5t-67 -72.5q-112 -121 -211.5 -250.5t-183.5 -270.5l-24 -44t-23 -45q-5 -9 -9.5 -18.5t-6.5 -19.5t0 -20.5t12 -22.5q-22 -1 -31 8.5t-15 17.5
q-7 19 -2.5 35t10.5 31q14 32 29.5 63t32.5 61q99 174 227 329q5 6 9.5 12.5t6.5 16.5l-14 -10t-14 -11q-90 -76 -178 -152t-179 -152q-32 -27 -66 -50.5t-69 -47.5q-15 -11 -32.5 -18.5t-36.5 -15.5q-15 -5 -29 -2t-24.5 11t-16 21t-2.5 29q6 37 24 68q14 27 30.5 53
t33.5 51q72 103 155 192t175 174q30 28 63 54t65 52q12 10 25 17.5t25 14.5q17 -3 24 -12.5t12 -24.5q-7 -10 -13 -22t-16 -23q-81 -102 -170.5 -193t-185.5 -178q-4 -5 -8.5 -7.5t-11.5 -5.5z" />
    <glyph glyph-name="V" unicode="V" horiz-adv-x="657" 
d="M380 738q6 -7 13 -13t13 -11q-2 -5 -3 -9t-2 -4q-13 0 -21 -7t-15 -17q-14 -18 -27 -36t-26 -37q-84 -122 -162 -245t-146 -256q-6 -13 -12.5 -27t-14.5 -32q21 5 33.5 14.5t24.5 18.5q55 45 110 88t108 89q154 131 305 262t304 264q2 2 6.5 4.5t9.5 5.5l21 -21
q-5 -20 -16 -29.5t-22 -20.5q-109 -94 -216 -187.5t-216 -187.5q-83 -71 -165.5 -139.5t-166.5 -137.5q-35 -29 -73 -55q-12 -8 -25.5 -14.5t-28.5 -15.5q-11 10 -20 18t-16 15q-8 23 -1.5 41t15.5 35q21 41 41.5 82.5t43.5 81.5q62 106 129 207t142 198q16 21 32.5 42
t43.5 36z" />
    <glyph glyph-name="W" unicode="W" horiz-adv-x="1129" 
d="M344 251q-10 -8 -19.5 -15.5t-18.5 -14.5q-46 -32 -89.5 -65t-90.5 -63q-26 -16 -54 -27.5t-57 -20.5q-22 -6 -41.5 -1t-33.5 17.5t-21 31.5t-4 41q3 20 11.5 40.5t17.5 38.5q26 51 60 96t71 88q89 104 189 194t215 166q15 10 29.5 19.5t30.5 17.5q13 8 28.5 10.5
t35.5 -2.5q5 -6 12.5 -14.5t13.5 -14.5q5 -26 -4.5 -42.5t-20.5 -30.5q-29 -33 -58.5 -66t-62.5 -62q-33 -31 -68.5 -59t-70.5 -55q-10 -8 -19.5 -14t-20.5 -10q-13 -5 -23.5 -2t-18.5 17q89 63 169 133t146 164q-60 -26 -115.5 -67t-106.5 -83q-83 -68 -157 -144.5
t-138 -162.5q-20 -29 -39 -58.5t-37 -59.5q-11 -17 -19 -35.5t-7 -40.5q15 -10 29.5 -7.5t28.5 8.5q29 14 58.5 29t56.5 32q77 48 144.5 104.5t134.5 115.5q60 54 117 105.5t115 103.5q11 9 21.5 18t24.5 20q7 -7 13.5 -13t16.5 -14q-12 -13 -21.5 -23t-19.5 -19
q-63 -60 -120 -125.5t-108 -136.5q-23 -32 -43 -66.5t-40 -69.5q-8 -16 -12 -27t-4.5 -21.5t1.5 -22t5 -28.5q17 -15 37.5 -17t43.5 2q68 12 130 46q252 138 418 371q25 35 43.5 73.5t29.5 80.5q7 25 7.5 41.5t-5.5 42.5q-13 0 -23.5 -4.5t-21 -10.5t-21.5 -12.5t-23 -10.5
q-6 5 -13 11.5t-15 14.5q18 19 37 30.5t40 19.5q32 15 55 -10q25 -20 33 -46.5t4 -57.5q-5 -36 -16.5 -70.5t-28.5 -67.5q-25 -48 -55.5 -90t-65.5 -81q-131 -146 -297 -246q-34 -20 -69 -36.5t-74 -25.5t-79 -9q-35 1 -61 15t-41 36.5t-19 52t7 61.5q5 16 12.5 30t14.5 29
q5 11 9 25q-1 2 -2.5 3t-2.5 3z" />
    <glyph glyph-name="X" unicode="X" horiz-adv-x="906" 
d="M637 567q25 15 45.5 28.5t40.5 24.5q29 17 57 33t57 31q13 8 27 13.5t28 10.5q37 14 63.5 5t40.5 -57q-6 -34 -42 -57l-16 22t-18 25q-70 -28 -135.5 -64t-131.5 -78q8 -52 16 -101.5t16 -98.5q10 -68 18 -135t17 -134q2 -13 6 -24t7 -25q-2 -2 -6 -4.5t-8 -5.5
q-23 3 -30.5 16t-10.5 32q-14 103 -28.5 204t-30.5 204q-1 10 -4 19.5t-6 22.5q-15 -10 -26.5 -17.5t-22.5 -16.5q-134 -92 -252.5 -198.5t-230.5 -223.5q-18 -18 -35 -36t-36 -35q-12 -11 -25 -19.5t-25 -16.5q-20 10 -32 18.5t-18 18.5t-6.5 23t3.5 32q12 62 36 119
q148 333 432 553q20 15 42 28t44 24q29 15 56 9.5t48 -28.5q15 -17 27 -36.5t23 -38.5q8 -15 13 -31t13 -35zM542 688q-18 9 -38.5 4.5t-40.5 -15t-37.5 -24.5t-30.5 -24q-125 -103 -223 -227t-169 -270q-16 -31 -27.5 -64t-24.5 -65q-2 -7 -2 -15t-1 -22q46 38 82 79.5
t75 78.5q40 37 78 75t79 74q40 36 81.5 70.5t84.5 68.5q41 34 84.5 65.5t85.5 64.5q-10 40 -21 77t-35 69z" />
    <glyph glyph-name="Y" unicode="Y" horiz-adv-x="743" 
d="M735 725q-52 -35 -101 -74.5t-97 -78.5q-70 -60 -139 -120.5t-139 -119.5q-31 -27 -65 -51l-68 -48q-19 -13 -41 -18.5t-46 5.5q-26 20 -33.5 46.5t-0.5 59.5q17 72 46.5 138t64.5 131q15 28 31.5 54t34.5 53q8 11 18.5 20.5t21.5 21.5q8 -8 13.5 -14t10.5 -12
q-10 -12 -19.5 -21.5t-16.5 -20.5q-53 -84 -95 -171.5t-68 -184.5q-4 -14 -6 -29t-5 -35q13 3 22.5 3.5t15.5 3.5q29 17 57 33.5t54 36.5q45 36 89 73.5t88 74.5q75 62 149 123.5t150 122.5q23 19 48.5 36t60.5 25q6 -9 14 -20t16 -24q-8 -18 -15 -35.5t-16 -34.5
q-75 -129 -152 -254t-164 -246q-35 -48 -75.5 -90.5t-90.5 -78.5q-44 -31 -89 -42.5t-90 -7.5t-88 20.5t-81 42.5q-14 10 -25.5 22.5t-15.5 30.5q11 8 17 2t13 -11q50 -33 104 -48t116 -7q39 5 73 23.5t64 43.5q48 36 87 80.5t72 94.5q55 82 107.5 163t105.5 165
q23 35 44.5 70t41.5 70l-8 8v0z" />
    <glyph glyph-name="Z" unicode="Z" horiz-adv-x="941" 
d="M597 392q34 -2 64.5 -3.5t59.5 -3.5q16 -2 29 -7.5t18 -26.5q-8 0 -14.5 -0.5t-11.5 0.5h-145q-45 0 -82.5 -15.5t-74.5 -39.5q-60 -42 -121.5 -79.5t-124.5 -76.5q-8 -5 -14.5 -10.5t-12.5 -14.5q6 1 13 1.5t12 2.5q105 29 211 47t214 23q38 2 75.5 -1t75.5 -6
q14 -2 27.5 -8.5t21.5 -22.5q5 -13 2 -22t-19 -16q-7 5 -13.5 12.5t-17.5 17.5q-48 2 -98.5 2t-101.5 -5q-151 -16 -294.5 -51t-284.5 -88q-10 -4 -21 -6t-22 -6q-6 11 -10.5 18.5t-8.5 14.5q3 5 4 9t4 6q18 12 35.5 24.5t35.5 23.5q85 53 169.5 106t170.5 107q11 7 22 15
t29 20q-36 -5 -65.5 -7.5t-58.5 -4.5q-2 5 -4.5 11t-4.5 11q12 11 26 14t26 5q29 5 57.5 8t58.5 5q19 2 36.5 6t33.5 15q60 42 121 81.5t121 81.5q16 12 31 25t30 27q27 26 29.5 41.5t-11.5 24t-39 11t-52.5 2t-54 -2.5t-41.5 -3q-104 -11 -205.5 -32.5t-199.5 -57.5
q-31 -11 -61 -23.5t-58 -29.5t-45 -35t-20 -37.5t9 -41t42 -46.5q13 -9 16 -31q-5 2 -11 2.5t-10 4.5q-16 17 -32.5 34t-29.5 37q-20 30 -16.5 58.5t27.5 55.5q39 43 96 65q48 18 96 35t98 31q81 23 163 37.5t166 23.5q38 4 75.5 4.5t75.5 -10.5q6 -1 11.5 -3t11.5 -4
q32 -15 42 -45.5t-9 -60.5q-13 -17 -28 -34.5t-33 -31.5q-42 -34 -85 -65t-88 -64q-8 -7 -17 -13.5t-21 -14.5z" />
    <glyph glyph-name="backslash" unicode="\" horiz-adv-x="317" 
d="M19 764q17 7 24.5 0.5t11.5 -15.5q7 -20 13.5 -38.5t11.5 -37.5q15 -82 30 -163t28 -162q12 -84 21.5 -166.5t20.5 -167.5v-26q-7 -2 -11.5 -2t-9.5 -1q-11 16 -14 33l-6 34q-20 132 -39.5 263t-40.5 262q-7 41 -17 80.5t-18 81.5q-2 5 -2.5 11t-2.5 14z" />
    <glyph glyph-name="underscore" unicode="_" horiz-adv-x="474" 
d="M287 123q2 -6 4 -13.5t6 -17.5q-44 10 -88.5 13t-88.5 1.5t-88 -6.5t-87 -9q-5 -10 -8 -15.5t-5 -9.5q-22 -2 -33 9t-13 30q5 16 17 21t24 7q45 9 91.5 14.5t93 5.5t90.5 -7t85 -23z" />
    <glyph glyph-name="a" unicode="a" horiz-adv-x="444" 
d="M212 403q14 9 24.5 17t21.5 17q8 -7 15.5 -13t15.5 -14q-28 -29 -56.5 -55.5t-50.5 -58.5q-8 -11 -13 -23t-4.5 -20.5t9 -10.5t28.5 6q37 14 66 24.5t56 20t54.5 19t59.5 22.5q9 2 16 -2t9 -17q-30 -13 -55 -23t-49 -20.5t-49.5 -22t-55.5 -26.5q-48 -22 -84.5 -13.5
t-56.5 58.5q-30 -18 -53 -32.5t-46 -28.5q-12 -7 -20.5 -10t-16.5 -1t-17 9t-23 19q6 42 22 66.5t42 47.5q7 5 13.5 11t14.5 12q40 30 85 44t98 -2zM-1 259q26 14 48.5 26.5t44 25.5t43.5 28t47 33q-57 3 -101 -22t-82 -91z" />
    <glyph glyph-name="b" unicode="b" horiz-adv-x="557" 
d="M18 389q42 70 92.5 133.5t112.5 117.5q26 23 54 43.5t57 39.5q14 9 30 14l32 10q15 5 27.5 1t21 -14.5t11.5 -25t-3 -29.5q-12 -31 -34 -61q-24 -28 -49 -56t-52 -54q-29 -29 -58.5 -54.5t-61.5 -48.5q24 10 49 18t51 15q14 3 29 4.5t30 -0.5q30 -1 40.5 -24t-5.5 -50
q-4 -9 -9.5 -16.5t-12.5 -17.5q21 -3 39.5 -1.5t36.5 2.5q26 2 51 4t50 1q15 0 18 -8.5t-1 -25.5q-27 -1 -45.5 -1.5t-33 -1.5t-28 -2t-31.5 -2q-17 -2 -33.5 -4.5t-32.5 -4.5q-26 -5 -51.5 -12t-50.5 -21q-36 -18 -74 -32l-76 -28q-12 -5 -24.5 -6t-26.5 -3q-8 14 -17 28
q5 12 8 15q15 11 30.5 22t32.5 18q26 9 53 16.5t55 14.5q24 5 44.5 15t38.5 24q21 16 34 30.5t13.5 23t-13.5 10t-45 -8.5q-69 -20 -130.5 -53.5t-115.5 -83.5q-15 -14 -28 -29t-10 -41q-25 6 -32.5 21.5t-9.5 33.5q-2 16 3 35.5t13.5 39t18 38t18.5 32.5zM89 384
q17 11 35 19.5t36 20.5q122 82 213 197q19 22 31 46q5 8 9 17.5t-1 22.5q-29 2 -53.5 -10.5t-49.5 -29.5q-75 -57 -134.5 -126.5t-109.5 -149.5q-5 -6 -2.5 -8t7.5 -2t11 1t8 2zM38 335q-4 -10 -7.5 -19t-7.5 -19q6 5 11.5 8.5t11.5 8.5q8 6 15.5 12.5t15.5 11.5l-4 -2
q-19 -10 -35 -1z" />
    <glyph glyph-name="c" unicode="c" horiz-adv-x="433" 
d="M447 310q-20 -8 -30 -12.5t-18 -8t-18.5 -8t-30.5 -11.5q-39 -15 -79.5 -28.5t-80.5 -25.5q-26 -8 -53.5 -13t-55.5 -9q-27 -3 -52 3.5t-46 24.5q-26 21 -29.5 41t16.5 46q14 19 31 36t35 32q51 40 114 49q27 5 49.5 -4.5t42.5 -43.5q-5 -6 -10.5 -11t-12.5 -11
q-14 11 -22.5 18t-16.5 14q-33 -6 -63.5 -19.5t-54 -32.5t-39 -42t-19.5 -48q14 -10 29 -11.5t32 0.5q45 4 87 15t84 25q33 11 56.5 19t45.5 15.5t46 16t56 19.5z" />
    <glyph glyph-name="d" unicode="d" horiz-adv-x="540" 
d="M646 697q20 -24 20.5 -38.5t-17.5 -34.5q-20 -23 -42 -43.5t-45 -38.5q-72 -53 -146.5 -97.5t-152.5 -86.5q-30 -16 -47 -47.5t-15 -70.5q3 -11 35 -7t81.5 18.5t109.5 36.5t120 46q3 -11 6.5 -18.5t-8.5 -13.5q-33 -15 -75 -33t-86.5 -33.5t-86.5 -25.5t-74 -10
q-35 1 -52 27t-10 64q-8 -5 -15 -10t-15 -10l-52 -32t-53 -28q-32 -14 -52 -4.5t-38 42.5q5 11 10 23t13 23q26 40 62.5 66.5t81.5 43.5q29 11 55 8.5t46 -28.5h1l10 12q40 52 81.5 99.5t92.5 89.5q42 35 87.5 62.5t97.5 45.5q8 3 18 6t20 4.5t19 0t15 -7.5zM616 659
q-48 -14 -96.5 -40.5t-92.5 -61.5t-83 -74.5t-68 -78.5q46 27 101.5 60.5t105.5 68.5t87 68t46 58zM44 325q-26 -22 -38 -39.5t-19 -40.5q18 3 42 13.5t50.5 27t54 37.5t51.5 44q-13 15 -31.5 14.5t-39 -9.5t-39 -22.5t-31.5 -24.5z" />
    <glyph glyph-name="e" unicode="e" horiz-adv-x="479" 
d="M210 362q0 -9 -17 -19.5t-45 -20.5t-62.5 -18t-69.5 -12q-2 -23 12.5 -33t35.5 -12.5t44 -0.5t37 3q91 14 173 38.5t165 47.5q5 -8 5 -13t-2.5 -8.5t-6 -5t-5.5 -2.5q-53 -18 -105 -35.5t-102 -32t-98.5 -23.5t-94.5 -9q-39 0 -63 17t-31.5 42t4.5 53t45 49q61 41 139 40
q17 -1 27.5 -11t14.5 -34zM65 335q23 5 41 11t35 20q-23 0 -39.5 -7.5t-36.5 -23.5z" />
    <glyph glyph-name="f" unicode="f" horiz-adv-x="470" 
d="M346 490q6 -5 11 -9t10 -9q0 -5 0.5 -8t-0.5 -5q-6 -5 -12.5 -12t-14.5 -9q-20 -5 -42.5 -17.5t-42 -27.5t-33.5 -29.5t-17 -22.5q78 2 145.5 2t127.5 -2q9 0 12 -6t3 -12.5t-2.5 -13t-5.5 -7.5q-67 3 -130.5 0t-130.5 0q-11 -41 -37 -77t-59.5 -67.5t-70 -57.5
t-68.5 -47q-17 -12 -34.5 -22t-41.5 -12q-8 5 -15.5 12t-14.5 12q-5 23 5 38t19 29q29 45 72.5 94t96.5 96q-12 0 -23.5 -2.5t-23 -4.5t-22.5 -2.5t-21 4.5q-3 5 -5.5 13t5.5 25q35 1 68.5 3t67.5 3q54 44 109 83t115 68zM-58 74q16 7 40 22t51.5 36.5t56 48t53.5 55.5
q19 22 24.5 38.5t0.5 23t-20 1.5t-37 -25q-49 -44 -91.5 -93t-77.5 -107z" />
    <glyph glyph-name="g" unicode="g" horiz-adv-x="371" 
d="M45 234q-29 -9 -45 -13t-26 -2t-17.5 10t-19.5 23q2 6 4 14t7 16q24 41 55 74t73 56q29 16 57 18.5t57 -22.5q9 8 18 14.5t20 15.5q6 -7 13 -13t15 -14q-38 -52 -79.5 -99.5t-83.5 -104.5q73 35 138 66.5t142 59.5q5 -5 7 -17.5t-9 -17.5q-94 -38 -184.5 -87t-178.5 -119
q-17 -13 -32.5 -27.5t-30.5 -30.5q-42 -47 -83 -93.5t-84 -93.5q-22 -23 -44.5 -44.5t-52.5 -38.5q-10 8 -18 14t-16 11q0 7 -0.5 11.5t1.5 6.5q21 28 41.5 57t45.5 53q39 39 80.5 75.5t83.5 72.5q43 36 78 77.5t68 86.5q1 2 0.5 2.5t-0.5 2.5zM170 384q-21 16 -46 8.5
t-49 -27.5t-44 -47.5t-31 -51.5q48 28 90 57t80 61z" />
    <glyph glyph-name="h" unicode="h" horiz-adv-x="573" 
d="M242 285q12 20 28.5 37t25.5 41q-44 -11 -86.5 -29.5t-83 -39.5t-79.5 -43.5t-78 -40.5q-5 5 -11 9.5t-13 11.5q21 59 54 115t74 107t87.5 96t94.5 81q35 27 73.5 47.5t82.5 31.5q17 4 29 4.5t20.5 -4t16 -15t15.5 -27.5q-3 -26 -16.5 -46.5t-30.5 -39.5
q-43 -48 -90 -88.5t-99 -75.5q-10 -7 -18.5 -13.5t-16.5 -16.5q11 3 21.5 7.5t22.5 6.5q24 5 46 1.5t37 -32.5q-1 -17 -8.5 -31t-18 -27.5l-21 -27t-16.5 -29.5q27 -3 67.5 8t83 26t80.5 29t58 18q8 -2 11 -10t8 -16q-32 -11 -67.5 -24.5t-71.5 -27t-71.5 -25t-67.5 -19.5
q-17 -5 -34.5 -2t-30 12.5t-16 25t8.5 35.5zM453 673q-26 0 -60 -13t-71 -35.5t-74 -52.5t-70 -63t-59 -67.5t-40 -65.5q27 6 62 24t72.5 42.5t75.5 54.5t70.5 61t57.5 60.5t36 54.5zM111 331q-30 -6 -46 -10t-24.5 -9t-12.5 -12t-8 -20q22 12 43.5 24t47.5 27z" />
    <glyph glyph-name="i" unicode="i" horiz-adv-x="279" 
d="M-21 315q31 38 50.5 60t31 34.5t18 18t11.5 9.5l31 -27q-28 -29 -56.5 -55.5t-50.5 -58.5q-8 -11 -12 -22.5t-2 -20t11.5 -11.5t27.5 3q37 14 65.5 25t54.5 21t52.5 20t58.5 23q9 2 16 -2t9 -17q-42 -18 -75 -31t-68 -29q-33 -15 -67.5 -32t-65.5 -19q-21 -2 -34.5 9.5
t-19 29t-2.5 37.5t16 35zM126 465q24 50 42 57t42 -22q-14 -13 -27.5 -26t-29.5 -27q-7 4 -14 8.5t-13 9.5z" />
    <glyph glyph-name="j" unicode="j" horiz-adv-x="400" 
d="M-31 128q42 22 98.5 51t116 58t117 55t100.5 43q9 -7 11 -13t5 -17q-8 -3 -36 -14.5t-68 -29.5t-88 -40.5t-96.5 -46.5t-93 -48.5t-77.5 -46.5q-34 -23 -64.5 -48.5t-56.5 -56.5q-34 -38 -70 -72t-78 -60q-8 7 -14.5 13.5t-14.5 11.5q6 16 17.5 31.5t25.5 30.5t29 28
t28 24q47 38 89 80.5t81 88.5q37 43 75.5 84t76.5 83q6 8 13.5 17t18.5 23q-38 -13 -65.5 -32t-55.5 -39q-4 5 -8.5 10t-7.5 8q-6 10 9 25t42.5 30.5t63.5 30.5t74 26q5 -5 10.5 -9.5t6.5 -10.5q2 -8 -0.5 -17t-7.5 -15q-32 -45 -68 -83t-70 -76q-3 -4 -13.5 -15
t-21.5 -23.5t-20.5 -23.5t-12.5 -15zM197 454q24 50 42 57t42 -22q-14 -13 -27.5 -26t-29.5 -27q-7 4 -14 8.5t-13 9.5z" />
    <glyph glyph-name="k" unicode="k" horiz-adv-x="543" 
d="M551 335q5 -23 5 -26.5t-1 -3.5q-56 -22 -116.5 -46t-120.5 -37q-33 -8 -65.5 -12t-64.5 -6q-30 -2 -53 4t-42 17t-36.5 26t-37.5 30q-15 -18 -21 -31.5t-8.5 -22t-5 -12.5t-9.5 -4q-19 2 -27.5 12.5t-3.5 27.5q9 27 26 54q42 63 92 118t107 104q68 60 136 109.5
t145 75.5q9 2 20 3.5t21 -0.5q15 -4 21 -12.5t6 -18t-5.5 -19.5t-13.5 -17q-35 -43 -81 -75t-97 -58.5t-103.5 -49.5t-100.5 -47l-47 -49q14 4 21.5 5t13.5 5q41 16 81 30t84 21q12 3 23.5 4t22.5 1q36 -2 43 -33q-4 -17 -14 -24t-21 -14q-38 -21 -69.5 -33.5t-61.5 -20.5
t-61 -14t-67 -14q14 -23 34 -31.5t41 -10.5q42 -3 82.5 1.5t80.5 13.5q63 14 125.5 36t122.5 44zM174 479q40 19 80.5 40t78.5 44.5t72.5 50.5t62.5 60q-40 -14 -80.5 -35t-78.5 -47t-72.5 -55t-62.5 -58zM313 403q-35 -4 -71.5 -13t-70.5 -21.5t-61 -26.5t-42 -29
q66 9 125.5 31t119.5 59z" />
    <glyph glyph-name="l" unicode="l" horiz-adv-x="417" 
d="M463 697q20 -24 20.5 -38.5t-17.5 -34.5q-20 -23 -42 -43.5t-45 -38.5q-72 -53 -146.5 -97.5t-152.5 -86.5q-30 -16 -47 -47.5t-15 -70.5q3 -6 23.5 -4t52.5 8.5t73.5 17.5t85.5 24t88 26.5t82 26.5q3 -11 6.5 -18.5t-8.5 -13.5q-33 -15 -84.5 -34t-106.5 -35.5
t-106.5 -27t-83.5 -10.5q-36 1 -52.5 29t-8.5 67q1 7 5 14.5t7 14.5t3.5 13.5t-4.5 13.5q12 13 23 23.5t19 21.5q40 52 81.5 99.5t92.5 89.5q42 35 87.5 62.5t97.5 45.5q8 3 18 6t20 4.5t19 0t15 -7.5zM433 659q-48 -14 -96.5 -40.5t-92.5 -61.5t-83 -74.5t-68 -78.5
q46 27 101.5 60.5t105.5 68.5t87 68t46 58z" />
    <glyph glyph-name="m" unicode="m" horiz-adv-x="671" 
d="M684 304q-50 -25 -100 -45.5t-104 -35.5q-61 -15 -110 24q-39 30 -25 80l16 51q-30 -14 -56.5 -32t-52 -37t-51.5 -36.5t-55 -31.5q-8 8 -17 14.5t-21 15.5q11 24 21 46.5t20 45.5q-18 -6 -31 -11t-34 -21t-57.5 -46.5t-102.5 -87.5q-5 2 -8.5 4t-8.5 5t-7 7t-6 7
q1 5 15 23t35.5 42.5t48 52.5t51.5 53.5t47 45.5t34 28q2 -2 6 -3t7 -3q2 -2 4 -5.5t6 -8.5q-9 -10 -19 -20.5t-25 -27.5q23 8 37.5 13t31.5 10q13 -9 20 -14t9.5 -10t0.5 -12.5t-8 -22.5l-21 -55l16 8t12 7q18 12 38 27t41 29.5t41 25.5t38 15q19 5 33 -7t12 -32
q-1 -11 -5 -21.5t-8 -22.5q-4 -14 -8.5 -30t1.5 -34q21 -15 44 -14.5t46 8.5q42 13 82.5 28t82.5 31l36 15z" />
    <glyph glyph-name="n" unicode="n" horiz-adv-x="465" 
d="M478 308q-3 -2 -6 -3.5t-6 -3.5q-17 -9 -33 -15q-40 -17 -81 -32.5t-85 -21.5q-11 -2 -22.5 -2t-22.5 3q-27 8 -39.5 27t-7.5 47q1 12 3.5 23.5t5.5 27.5q-57 -15 -105.5 -45t-93.5 -66l-38 -28l-28 21q11 26 29 43.5t34 36.5q14 19 28.5 38.5t31.5 41.5q7 -4 11.5 -7.5
t9.5 -6.5q-1 -9 -3 -19t-4 -22q32 14 61.5 27t57.5 24q18 -8 28 -14t14.5 -13t5 -17t-2.5 -25q-3 -16 -6 -31.5t7 -28.5q65 8 125 27.5t123 44.5z" />
    <glyph glyph-name="o" unicode="o" horiz-adv-x="382" 
d="M216 323q13 0 34.5 1.5t44.5 3t44 3t34 1.5q8 0 11.5 -0.5t5.5 -3t3.5 -7.5t4.5 -14q-49 -7 -106 -12.5t-104 -10.5q-14 -11 -25.5 -21t-23.5 -18q-39 -32 -88 -47q-34 -10 -68 9q-27 18 -34 42.5t14 50.5q9 11 18 21t19 19q29 28 63 48t75 31q17 5 35 3
q20 -2 33.5 -11.5t19.5 -23t3.5 -30.5t-13.5 -34zM191 390q-43 -4 -68 -15t-39 -32q-15 -24 -10.5 -30t19.5 -4t35 7.5t34 5.5q14 16 23.5 29t5.5 39zM18 301q-13 -15 -22.5 -30.5t-2.5 -38.5q29 -2 53.5 5t43.5 27q-30 -1 -45.5 9.5t-26.5 27.5z" />
    <glyph glyph-name="p" unicode="p" horiz-adv-x="475" 
d="M-13 220q-26 -31 -50.5 -57.5t-46.5 -52.5q-23 -26 -43.5 -52.5t-42.5 -55.5q-11 8 -19 14l-16 12q3 10 6 18t8 15q58 87 121 169.5t138 155.5q11 11 24 21.5t26 21.5q8 7 18 9.5t24 -3.5q2 -5 4 -14t5 -20q-18 -1 -35 -11.5t-31.5 -25.5t-26.5 -31t-21 -29
q22 12 47.5 29.5t51.5 35t52 32.5t50 23q42 15 79 -17q8 -8 10.5 -19t1 -23t-6.5 -23.5t-12 -21.5q41 5 78 7.5t79 7.5q12 2 22.5 -2.5t12.5 -27.5q-23 -2 -51.5 -5t-59 -6.5t-60 -7.5t-54.5 -9q-16 -4 -31.5 -10t-29.5 -13q-77 -36 -162 -51q-16 -2 -30.5 0.5t-28.5 16.5z
M40 251q36 9 72.5 18.5t69.5 24t60.5 36t45.5 56.5q-46 5 -108 -30.5t-140 -104.5z" />
    <glyph glyph-name="q" unicode="q" horiz-adv-x="369" 
d="M379 309q-37 -17 -79 -37t-84 -41.5t-82.5 -45.5t-74.5 -49q16 0 32 -1t30 -5t25 -11.5t19 -22.5h-24q-23 1 -45.5 2t-44.5 -1q-35 0 -60 -25q-42 -39 -83.5 -75.5t-77.5 -76.5q-15 12 -27 24q5 17 14.5 31t20 28t21.5 28t20 31l-63 -11q-2 0 -5 4.5t-5 10t-2.5 10
t3.5 4.5q23 9 45.5 17t44.5 13q17 5 30.5 11.5t24.5 19.5q23 26 47.5 52.5t51.5 55.5q-3 0 -8 -1.5t-11 -4t-11 -4.5t-7 -2q-25 2 -38.5 20.5t-0.5 49.5q10 23 28 44t41.5 38t49.5 28t51 13q19 2 30 -0.5t16 -9t5 -17.5t-3 -26q-16 19 -37 19t-42.5 -10.5t-41 -27
t-32.5 -30.5q-10 -11 -17 -20.5t-8 -15.5t6 -7.5t24 3.5q39 14 76.5 38.5t69.5 50.5q18 28 52 42l24 -28q-65 -51 -119 -107t-104 -119q78 49 162 92t167 78z" />
    <glyph glyph-name="r" unicode="r" horiz-adv-x="374" 
d="M197 312q46 4 89.5 11t87.5 12q9 1 11 -6t7 -18q-16 -4 -41 -10t-51.5 -11.5t-50 -10t-37.5 -5.5q-23 -2 -39.5 11t-16.5 34q1 13 1.5 28.5t2.5 34.5q-55 -17 -100 -54t-80 -78q-10 -13 -20 -25t-22 -26q-8 5 -15 9.5t-13 8.5q11 34 55.5 84.5t111.5 104.5q13 1 25 1
t23 3q28 10 49.5 -2.5t25.5 -38.5q2 -14 -0.5 -28.5t-2.5 -28.5z" />
    <glyph glyph-name="s" unicode="s" horiz-adv-x="383" 
d="M215 404q-36 -11 -66 -26.5t-59 -35.5q16 -2 31.5 -3t30.5 -3t29 -6.5t27 -14.5q41 9 86.5 21t82.5 9q13 -2 14.5 -8.5t3.5 -23.5q-22 1 -41 -1.5t-37 -6.5t-36 -9.5t-38 -9.5q-18 -5 -35.5 -12t-34.5 -14q-49 -19 -97 -38.5t-99 -38.5q-30 -12 -60.5 -23t-61.5 -22
q-15 -5 -26.5 -2.5t-19.5 19.5q3 13 12.5 16.5t20.5 8.5q69 26 137.5 53.5t137.5 53.5q6 2 12.5 5.5t20.5 9.5q-30 5 -54 3.5t-47 -5.5q-17 -4 -30.5 -0.5t-22.5 17.5q-8 10 -4.5 19t14.5 13q37 19 73.5 37.5t73.5 35.5q15 7 31 6t31 -24z" />
    <glyph glyph-name="t" unicode="t" horiz-adv-x="349" 
d="M362 304q-35 -15 -76 -34t-84 -36.5t-84.5 -31.5t-76.5 -19q-22 -4 -39.5 2t-28.5 18.5t-14.5 31t3.5 39.5q3 10 8 20t13 23.5t19.5 33t28.5 48.5q-26 -5 -46 -9.5t-41 -9.5q-7 7 -16 19q-8 9 6 15t38 10.5t50.5 8.5t43.5 10q69 73 116 120.5t82 76.5t62 44t55 23
q21 -17 24.5 -27t-10.5 -27q-13 -17 -27 -32.5t-31 -29.5q-45 -39 -86.5 -72.5t-80.5 -68.5q19 0 43 1t44.5 -1.5t34 -9t12.5 -21.5q-42 -2 -84 -2t-87 -6q-19 -2 -34 -8.5t-26 -21.5q-24 -38 -48 -76.5t-35 -82.5q7 -2 14.5 -3t18 0.5t26.5 6t40 12.5q63 22 133 46.5
t130 50.5zM352 651q-15 -6 -44 -30t-59.5 -53.5t-56.5 -57.5t-36 -41q27 25 61 54t64 54.5t50.5 45.5t20.5 28z" />
    <glyph glyph-name="u" unicode="u" horiz-adv-x="454" 
d="M466 305q-42 -21 -87.5 -40t-91.5 -30q-23 -6 -39 -6.5t-27.5 6t-21 20t-19.5 36.5q-19 -11 -36.5 -22t-36.5 -22q-18 -9 -37 -19t-39 -17q-29 -11 -51.5 -5t-37.5 44q18 55 57 97t90 77q6 -5 12 -9.5t16 -11.5q-21 -18 -40 -35.5t-35.5 -36t-30.5 -39.5t-25 -48
q25 3 52.5 13t60 28t72 44.5t88.5 62.5q11 -2 14 -7t10 -13l-35 -46q-9 -13 -16.5 -25.5t-5.5 -30.5q21 -6 51 1t62 19t63 25.5t53 22.5z" />
    <glyph glyph-name="v" unicode="v" horiz-adv-x="426" 
d="M441 309q-47 -20 -91 -42.5t-91 -39.5q-40 -15 -75 -10t-60 48q-30 -17 -56 -35.5t-62 -25.5q-8 7 -17 13.5t-17 13.5q-1 18 4 43t15 53t23.5 57t29.5 55q11 0 19 -5t12 -12t4.5 -15t-2.5 -14q-15 -40 -33 -72t-24 -68q50 15 92 51.5t76 77.5t60 77t44 49l33 -39
q-35 -35 -64.5 -69t-64.5 -69q-21 -21 -27 -41q-7 -24 11.5 -35.5t59.5 5.5q43 16 86.5 36t100.5 41z" />
    <glyph glyph-name="w" unicode="w" horiz-adv-x="616" 
d="M627 306q-49 -22 -99.5 -38t-101.5 -26q-24 -5 -45.5 0.5t-41.5 17.5q-20 -10 -38.5 -20t-38.5 -18q-18 -8 -37.5 -14.5t-38.5 -8.5q-43 -6 -65 10t-37 61q-11 -5 -21 -11.5t-21 -12.5q-9 -5 -18.5 -11t-20.5 -10q-15 -7 -23 -7.5t-17 7.5q-11 11 -18 22.5t2 26.5
q7 12 21 30t31.5 38t35.5 39.5t35 33.5q7 -5 12.5 -9t11.5 -8q-29 -29 -53 -60t-47 -73q53 22 92.5 51t80.5 58q5 -5 10 -8t12 -8q-4 -5 -6.5 -10t-5.5 -8q-15 -17 -23.5 -27.5t-13.5 -19.5t-8 -19.5t-7 -27.5q21 -13 44 -11.5t46.5 10.5t47.5 23t49 27q5 31 18 60.5
t31.5 54.5t42.5 45.5t50 33.5q13 7 21.5 10t16 0.5t14.5 -11.5t16 -24q-10 -28 -26 -52t-36.5 -45.5t-43 -42t-46.5 -42.5q33 -3 65.5 1t65 12.5t63 20t58.5 22.5zM369 341q40 23 67.5 54.5t36.5 64.5q-33 -23 -60 -50.5t-44 -68.5z" />
    <glyph glyph-name="x" unicode="x" horiz-adv-x="432" 
d="M135 280q-20 -7 -39.5 -17t-39.5 -19.5t-40.5 -18.5t-43.5 -14q-8 8 -16 16.5t-16 17.5q23 56 57 98.5t69 85.5q6 -8 13 -19.5t15.5 -25t19 -27.5t23.5 -25q61 18 117.5 46t113.5 52q11 5 19.5 -1t17.5 -23q-29 -16 -58.5 -28.5t-58.5 -25t-58.5 -26t-57.5 -30.5
q13 -11 30.5 -18.5t33.5 -13.5t28.5 -11t16.5 -10q-8 -23 -41.5 -10.5t-104.5 47.5zM98 310q-13 14 -22.5 25.5t-16.5 28.5q-15 -25 -31.5 -45.5t-27.5 -52.5q28 8 50.5 19t47.5 25z" />
    <glyph glyph-name="y" unicode="y" horiz-adv-x="373" 
d="M149 241q-5 -6 -15 -18.5t-14 -18.5q34 14 68.5 32t67.5 35.5t63 34t56 27.5q9 -20 8.5 -26t-2.5 -7q-50 -26 -107 -53.5t-101 -53.5q-58 -35 -94.5 -68t-63 -64.5t-48.5 -61t-51 -56.5q-12 -11 -26 -21.5t-35 -12.5l-30 26q0 12 2 16q10 26 27 46t36 37q26 25 52 48.5
t55 43.5q38 26 65.5 63.5t58.5 79.5q-28 -8 -54 -19t-52 -20q-18 9 -28.5 16.5t-14.5 16t-1.5 19.5t9.5 27q15 32 39.5 63t52.5 52l22 -21q-29 -29 -50.5 -61t-36.5 -74q39 8 70 25.5t61 36.5q27 18 53 39.5t55 44.5q3 -3 8.5 -7.5t14.5 -10.5q-17 -20 -32.5 -38.5
t-29.5 -36.5q-14 -17 -27.5 -37t-30.5 -43z" />
    <glyph glyph-name="z" unicode="z" horiz-adv-x="383" 
d="M135 205q33 14 67.5 31.5t67 35.5t62.5 34t55 27q9 -20 8.5 -26t-2.5 -7q-50 -26 -107 -53.5t-101 -53.5q-58 -35 -94.5 -68t-63 -64.5t-48.5 -61t-51 -56.5q-12 -11 -26 -21.5t-35 -12.5l-30 26q0 12 2 16q10 26 27 46t36 37q26 25 52 48.5t55 43.5q6 4 18.5 14.5
t24.5 23t20 25t6 21t-18.5 10.5t-52.5 -6q-11 19 -9.5 23.5t13.5 12.5q51 30 101 63.5t102 76.5q3 3 12 12.5t15 19t4 17.5t-20 8q-35 -3 -65.5 -16.5t-55.5 -32.5t-43 -40.5t-27 -40.5q-10 -19 -17.5 -21t-21.5 16q-7 10 -5 20.5t8.5 20.5t15 19t16.5 16q22 19 46 36
t50 29.5t54 19.5t58 6h8t8 -2q21 -5 30 -24t-2 -37q-15 -27 -40 -50t-53 -43.5t-57 -39t-52 -35.5q13 3 27.5 2.5t24.5 -5.5t12 -15t-9 -25z" />
    <glyph glyph-name="bar" unicode="|" horiz-adv-x="411" 
d="M316 631q10 -10 15 -15.5t11 -11.5q-10 -17 -18.5 -31t-17.5 -27q-84 -129 -153.5 -262.5t-128.5 -274.5q-22 -49 -38.5 -98.5t-25.5 -101.5q-14 -3 -21 3t-7 17q0 17 1 35t6 34q17 52 35 102t38 100q47 113 101.5 219t123.5 206q17 26 36.5 50.5t42.5 55.5z" />
    <glyph glyph-name="cent" unicode="&#xa2;" horiz-adv-x="499" 
d="M407 289q-23 -11 -45 -18.5t-44 -13.5q-35 -11 -70.5 -19.5t-71.5 -18.5q-20 -34 -30.5 -70.5t-14.5 -75.5q-32 6 -30 32q0 28 6 55q2 12 5.5 24.5t8.5 29.5q-8 -1 -18.5 -3t-22 -3t-23.5 0.5t-22 7.5q-26 15 -34.5 43.5t7.5 53.5q20 34 48 61.5t61 50t68 39t70 28.5
q21 8 37 19t30 29q16 21 35 40t38 39l28 -21q-14 -20 -28 -38l-28 -36q10 -9 19.5 -15t15.5 -12t8 -14t-2 -21q-3 -9 -8 -16t-12.5 -15t-19.5 -17.5t-30 -22.5l-20 11q6 10 21 26.5t24 31t5.5 21.5t-35.5 -2q-37 -51 -71 -104t-66 -114q54 10 101 23t93 32q1 0 1 0.5t1 0.5z
M250 448q-32 -14 -68 -33t-66.5 -44t-52 -55t-25.5 -64q29 -5 52.5 -4.5t45.5 4.5z" />
    <glyph glyph-name="sterling" unicode="&#xa3;" horiz-adv-x="577" 
d="M-57 101q-5 8 -8 14t-8 12q17 14 36 22.5t39 15t40 11.5t40 13q15 33 29.5 66.5t30.5 68.5q-22 2 -40 -3.5t-38 -10.5q-4 5 -7.5 10t-8.5 11q13 13 27.5 20t30 10.5t31.5 6t32 5.5q8 11 15 22.5t13 22.5q42 66 86.5 127t100.5 115q21 20 44 37.5t52 26.5q11 4 24 5t24 -2
q23 -8 31.5 -29.5t-0.5 -44.5q-4 -8 -9 -15.5t-10 -15.5q-84 -96 -197 -161q-7 -4 -18 -6q-4 1 -7.5 2.5t-6.5 3.5q-2 2 -3.5 4t-3.5 5q1 2 2.5 5.5t4.5 4.5q49 30 93.5 64t83.5 76q20 20 30.5 37t14.5 43q-39 -8 -67.5 -27t-57.5 -45q-51 -52 -92 -110t-77 -121
q-2 -2 -2 -5.5t-2 -6.5q42 1 83 2.5t83 2.5q12 0 23 0.5t22 -2.5q8 -2 14.5 -8.5t20.5 -15.5q-42 -4 -75.5 -6t-67.5 -6q-33 -2 -66.5 -5.5t-67.5 -8.5q-19 -34 -38 -67t-34 -73q22 1 39.5 2.5t34.5 2.5q63 5 125 6t125 -10q16 -2 29.5 -8.5t16.5 -28.5q-25 2 -48.5 4
t-46.5 3h-48.5t-47.5 -1q-24 0 -47.5 -2t-48.5 -4l-44 -6t-43 -9q-11 -4 -22.5 -5l-23 -2t-23 -2.5t-22.5 -6.5q-21 -9 -44.5 -15.5t-49.5 -14.5z" />
    <glyph glyph-name="currency" unicode="&#xa4;" horiz-adv-x="484" 
d="M118 382q20 5 39 13.5t38.5 14.5t39 6t40.5 -11q31 17 60 35l58 36q13 -7 31 -17q-26 -19 -50.5 -37t-50.5 -37q2 -8 3 -16t3 -16q-3 -10 -9.5 -17t-15 -12l-17 -10t-16.5 -11l34 -52t35 -53q-17 -8 -26.5 -1t-17.5 16q-14 20 -28 39t-28 39q-30 -5 -58.5 -12t-54 -19
t-47 -31t-37.5 -47q-14 0 -18 2q-5 0 -7.5 1.5t-5.5 3.5q-2 6 -1 11t6 12.5t15.5 18l27.5 27.5q-6 11 -12.5 22t-12.5 22q5 11 8.5 17.5t8.5 12.5t13 13t23 20q-8 13 -17.5 25.5t-18.5 26.5q9 1 14.5 1.5t11.5 -3t15 -11t25 -22.5zM281 362q-19 4 -30.5 6.5t-21.5 1.5
t-23 -5t-35 -11q-20 -8 -39 -18.5t-37 -29.5q28 1 55.5 6t52.5 12.5t45 17t33 20.5z" />
    <glyph glyph-name="yen" unicode="&#xa5;" horiz-adv-x="438" 
d="M93 252q-16 -4 -28.5 -7.5t-27.5 -6.5q-3 5 -8 9t-10 11q16 17 33.5 20.5t36.5 5.5q13 2 24.5 4t16.5 22q-31 5 -56.5 -4.5t-51.5 -23.5q-5 5 -11.5 11t-11.5 13q9 12 20 18t23.5 10t25 6.5t24.5 7.5q-10 6 -18.5 12.5t-16.5 12.5q1 2 5 6q-1 4 -2.5 7.5t-1.5 7.5
q2 13 3.5 27t6.5 27q17 54 40.5 104.5t50.5 100.5q2 5 6.5 10t9.5 11q6 -4 11 -8t10 -9q-9 -30 -21.5 -59.5t-24.5 -59t-22.5 -60t-15.5 -61.5q72 52 137.5 110t134.5 112q15 -11 27 -18q-3 -5 -4.5 -10t-5.5 -10q-35 -45 -69.5 -90.5t-70.5 -92.5q-8 -11 -15.5 -22
t-17.5 -24q16 -2 32 -0.5t30.5 0.5t27.5 -6.5t24 -21.5q-36 -2 -69.5 -5t-69.5 -7q-5 -8 -11 -16t-14 -19q41 -6 63.5 -10t33.5 -8t15.5 -9.5t9.5 -14.5q-20 2 -39 4t-37 2q-18 1 -36.5 -1t-36.5 -4q-32 -42 -56 -85t-45 -88q-15 0 -19.5 7.5t-3.5 16.5q2 11 6 22t8 20
q10 20 20 38.5t21 37.5q2 5 4.5 11t6.5 16zM120 358q19 -5 33 -2t25 17q13 17 25 34.5t24 34.5l-6 6q-24 -23 -49.5 -44.5t-51.5 -45.5z" />
    <glyph glyph-name="plusminus" unicode="&#xb1;" horiz-adv-x="557" 
d="M351 473q0 -20 -9 -31t-19.5 -19t-20.5 -16.5t-11 -23.5q20 0 40.5 1t40.5 -1q9 -1 19.5 -1.5t20 -3.5t18 -9.5t14.5 -19.5q-50 -3 -97.5 -6t-95.5 -7q-23 -31 -34.5 -54t-16.5 -37.5t-6.5 -21t-2.5 -4.5q-16 5 -27.5 19.5t-8.5 28.5q3 10 7 19.5t9 17.5l8 15
q-26 -1 -47 -3.5t-41 -7.5q-21 -4 -39 1.5t-33 28.5q8 3 14 6.5t13 4.5q75 10 153 18q15 2 24.5 11t17.5 20q20 23 40.5 47t52.5 45zM-20 116q-5 8 -8.5 15t-8.5 12q16 10 45.5 18.5t66.5 14.5t78 9.5t80.5 4t74.5 -2.5t59 -9q2 -3 4.5 -5.5t4.5 -5.5q2 -2 1.5 -5.5
t1.5 -8.5h-98q-26 -2 -51 -4.5t-49 -5.5q-26 -2 -50.5 -4.5t-50.5 -6.5q-25 -3 -49.5 -7.5t-50.5 -8.5z" />
    <glyph glyph-name="multiply" unicode="&#xd7;" horiz-adv-x="484" 
d="M131 341q-17 22 -33.5 43t-33.5 43q15 11 26 7.5t19 -12.5q11 -14 23 -28.5t26 -30.5q58 45 116.5 86t128.5 67q4 -7 8.5 -13t12.5 -14q-63 -36 -121.5 -75t-112.5 -91q34 -36 67 -70t67 -68q-16 -11 -25.5 -6t-18.5 13q-23 23 -45.5 44t-45.5 44q-5 5 -10.5 9.5
t-11.5 11.5q-19 -12 -35 -26t-31.5 -29.5t-31 -30.5t-33.5 -28q-9 10 -23 21q11 21 25.5 38t30 32.5t31.5 30.5t31 32z" />
    <glyph glyph-name="divide" unicode="&#xf7;" horiz-adv-x="601" 
d="M33 292q-3 8 -5.5 15t-5.5 16q8 5 15 10t15 8q20 6 40.5 12t40.5 9q67 8 132.5 14t132.5 -8q19 -5 38 -12q9 -5 14 -13.5t3 -22.5q-54 14 -105.5 14.5t-105.5 -4.5q-52 -5 -103.5 -13t-105.5 -25zM181 217q-6 1 -13 8.5t-8.5 16.5t6 16t31.5 7q21 -5 25.5 -13t-0.5 -16
t-17 -13.5t-24 -5.5zM280 456q-8 -10 -19.5 -15.5t-22 -5.5t-19 6t-11.5 19q8 7 19 12t21.5 6t19 -4t12.5 -18z" />
    <glyph glyph-name="quoteleft" unicode="&#x2018;" horiz-adv-x="232" 
d="M136 562q-1 12 5 30t15.5 37t20.5 36.5t21 26.5q2 0 3 0.5t3 0.5q5 0 9 -1.5t9 -1.5q-19 -35 -31 -70t-21 -67z" />
    <glyph glyph-name="quoteright" unicode="&#x2019;" horiz-adv-x="232" 
d="M220 684q1 -12 -5 -30t-15.5 -37t-20.5 -36.5t-21 -26.5q-2 0 -3 -0.5t-3 -0.5q-5 0 -9 1.5t-9 1.5q19 35 31 70t21 67z" />
    <glyph glyph-name="quotedblleft" unicode="&#x201c;" horiz-adv-x="301" 
d="M198 562q-1 12 5 30t15.5 37t20.5 36.5t21 26.5q2 0 3 0.5t3 0.5q5 0 9 -1.5t9 -1.5q-19 -35 -31 -70t-21 -67zM136 562q-1 12 5 30t15.5 37t20.5 36.5t21 26.5q2 0 3 0.5t3 0.5q5 0 9 -1.5t9 -1.5q-19 -35 -31 -70t-21 -67z" />
    <glyph glyph-name="quotedblright" unicode="&#x201d;" horiz-adv-x="301" 
d="M220 684q1 -12 -5 -30t-15.5 -37t-20.5 -36.5t-21 -26.5q-2 0 -3 -0.5t-3 -0.5q-5 0 -9 1.5t-9 1.5q19 35 31 70t21 67zM282 684q1 -12 -5 -30t-15.5 -37t-20.5 -36.5t-21 -26.5q-2 0 -3 -0.5t-3 -0.5q-5 0 -9 1.5t-9 1.5q19 35 31 70t21 67z" />
    <glyph glyph-name="Euro" unicode="&#x20ac;" horiz-adv-x="803" 
d="M15 420q-8 12 -20 27q5 5 7.5 9t7.5 6q29 15 60 20t63 10q16 2 31 4t26 4q41 35 78 66.5t75 60.5t79 53t86 43q56 23 116 27q46 5 87 -19q61 -35 57 -102q-1 -11 -2.5 -21.5t-5.5 -20.5q-11 -36 -29.5 -68.5t-42.5 -62.5q-5 -5 -11 -10t-14 -12q-5 5 -9.5 7.5t-8.5 5.5
q2 11 4 14q14 23 29.5 44.5t27.5 45.5q20 39 28 81q8 41 -12 63t-63 22q-20 0 -41 -4t-40 -9q-50 -17 -96 -39q-54 -29 -100.5 -63.5t-90.5 -73.5q-5 -5 -9 -10.5t-12 -13.5q33 -1 62 -1t58 -1q9 -1 18.5 -1.5t17.5 -2.5q31 -5 41 -30q2 -5 -1.5 -11t-5.5 -14
q-10 7 -17.5 12t-17.5 12h-101t-105 -9q-14 -17 -29.5 -35.5t-33.5 -38.5q16 -5 29 -4t24 3q41 5 81 3t79 -8q17 -2 31 -8t26 -18q3 -3 5 -8.5t7 -14.5q-54 22 -103.5 22.5t-100.5 -4.5q-28 -4 -55 -6.5t-56 -5.5q-26 -42 -46.5 -85.5t-20.5 -93.5v-15.5t1 -15.5
q8 -32 44 -44q30 -9 57.5 -4.5t56.5 12.5q38 9 75 24t72 34q57 31 107 65.5t98 74.5q11 10 21.5 22t23.5 26q12 0 19 -9t12 -23q-6 -8 -11.5 -16t-13.5 -14q-78 -74 -165.5 -131.5t-194.5 -89.5q-26 -8 -53 -11.5t-55 -1.5q-29 1 -53.5 11.5t-42.5 28t-28.5 41t-10.5 50.5
q-2 29 5.5 56.5t18.5 53.5q3 8 5.5 15t0.5 16q-5 -4 -10 -8.5t-13 -9.5l-11 11t-11 13q6 13 16 21t22 13.5t25 9t25 8.5q14 18 27.5 36.5t30.5 41.5q-36 2 -68 -4t-63 -23z" />
    <glyph glyph-name="trademark" unicode="&#x2122;" horiz-adv-x="399" 
d="M265 612q6 2 10.5 5.5t9.5 7.5l62 57q21 21 43 40.5t45 37.5l12 10t14 8q5 -1 6.5 -3.5t3.5 -5.5q0 -5 -2.5 -7.5t-5.5 -6.5l-34 -41q-23 -28 -42 -58t-34 -63q-3 -5 -5 -11.5t-4 -12.5q-2 -8 -1.5 -14t7.5 -11q-19 2 -20 15q-2 8 1 15.5t5 15.5q18 49 50 91
q8 12 17 23.5t18 22.5q2 4 2 7l-8 -7l-82 -77q-15 -16 -35 -33l-20 -15q-8 -5 -12.5 -4t-11.5 6q-2 1 -2.5 2t-1.5 2q-3 9 0 16l15 31q10 17 21.5 33t23.5 31q3 5 6 8.5t5 8.5l-6 -4q-34 -31 -59 -66q-17 -23 -33 -47t-33 -47l-6 -12q-6 -1 -11 4l4 9q7 11 13 21t13 20
q17 25 34 49t37 47q11 12 22 23t25 22h-11q-23 -2 -51 -2.5t-42 -4.5l-41 -43q-1 -1 -4 -6q-5 -17 -14 -31t-20 -28q-8 -10 -16 -19t-17 -18l-57 -55q-3 -2 -5.5 -4.5t-6.5 -4.5l-10 10l9 15q8 10 15 19t15 19l94 106l5 7q-2 10 -13 12t-19 3q-40 3 -79 -6l-19 -5q-2 2 -3 4
t-3 4q4 3 7.5 4t6.5 2q23 5 45.5 10t44.5 9q20 4 38.5 6.5t38.5 4.5q26 4 53 5t54 0q5 0 10 -0.5t10 -1.5q1 0 2 -1l4 3l9 -8q2 -4 0.5 -6.5t-3.5 -5.5l-15 -21q-11 -16 -22 -31.5t-22 -31.5q-13 -19 -21 -37l-5 -13zM141 739q20 -6 31 -17l23 23q-9 1 -27 -1.5t-27 -4.5z
M83 599q7 5 17.5 14.5t20 21t17 22t10.5 17.5q-17 -18 -33.5 -36.5t-31.5 -38.5z" />
  </font>
</defs>
</svg>
